<svg xmlns="http://www.w3.org/2000/svg" width="32" height="32" viewBox="0 0 32 32">
  <path id="Presse-Archiv-Icon" d="M37.75,8A2.25,2.25,0,0,1,40,10.25v5.5a2.25,2.25,0,0,1-2,2.236V35.75A4.25,4.25,0,0,1,33.956,40l-.206,0H14.25A4.25,4.25,0,0,1,10,35.956l0-.206V17.986A2.25,2.25,0,0,1,8,15.75v-5.5A2.25,2.25,0,0,1,10.25,8ZM35.5,18h-23V35.75a1.75,1.75,0,0,0,1.606,1.744l.144.006h19.5a1.75,1.75,0,0,0,1.744-1.606l.006-.144ZM20.25,22.5h6.5a1.25,1.25,0,0,1,.128,2.493L26.75,25h-6.5a1.25,1.25,0,0,1-.128-2.493l.128-.007h0Zm17.25-12h-27v5h27Z" transform="translate(-8 -8)" fill="#333"/>
</svg>
