<svg xmlns="http://www.w3.org/2000/svg" width="41" height="41" viewBox="0 0 41 41">
  <path id="Zitate-Icon" d="M10.969,9.688a1.281,1.281,0,0,0-1.281,1.281v2.563a1.281,1.281,0,0,0,2.046,1.028,8.241,8.241,0,0,1-1.671,3.191,1.281,1.281,0,0,0,1.812,1.812,12.724,12.724,0,0,0,2.938-8.593,1.281,1.281,0,0,0-1.281-1.281Zm7.688,0a1.281,1.281,0,0,0-1.281,1.281v2.563a1.281,1.281,0,0,0,2.046,1.028A8.241,8.241,0,0,1,17.75,17.75a1.281,1.281,0,0,0,1.812,1.812A12.724,12.724,0,0,0,22.5,10.969a1.281,1.281,0,0,0-1.281-1.281ZM2,7.125A5.125,5.125,0,0,1,7.125,2H25.063a5.125,5.125,0,0,1,5.125,5.125V22.5a5.125,5.125,0,0,1-5.125,5.125H21.016l-3.8,7.016a1.281,1.281,0,0,1-2.251.006l-3.842-7.021h-4A5.125,5.125,0,0,1,2,22.5ZM7.125,4.563A2.563,2.563,0,0,0,4.563,7.125V22.5a2.562,2.562,0,0,0,2.563,2.563h4.762a1.281,1.281,0,0,1,1.124.666l3.077,5.622,3.038-5.616a1.281,1.281,0,0,1,1.127-.672h4.81A2.562,2.562,0,0,0,27.625,22.5V7.125a2.562,2.562,0,0,0-2.562-2.562ZM3.281,32.75h7.73l1.4,2.563H3.281a1.281,1.281,0,0,1,0-2.562Zm38.438,2.563H19.771l1.386-2.562H41.719a1.281,1.281,0,0,1,0,2.563ZM3.281,40.438a1.281,1.281,0,0,0,0,2.563H28.906a1.281,1.281,0,0,0,0-2.562Z" transform="translate(-2 -2)" fill="#333"/>
</svg>
