<svg xmlns="http://www.w3.org/2000/svg" width="36.796" height="36.796" viewBox="0 0 36.796 36.796">
  <path id="Aktuelle-Stories-Icon" d="M1,4.5A3.5,3.5,0,0,1,4.5,1H16.77a3.5,3.5,0,0,1,3.5,3.5V15.018a3.5,3.5,0,0,1-3.5,3.5H4.5a3.5,3.5,0,0,1-3.5-3.5ZM5.381,6.257a.876.876,0,0,0,0,1.752H15.894a.876.876,0,0,0,0-1.752Zm0,5.257a.876.876,0,0,0,0,1.752H15.894a.876.876,0,0,0,0-1.752Zm.876,8.761H8.885V32.1a3.062,3.062,0,0,0,.181,1.04l10.2-9.989a3.943,3.943,0,0,1,5.292-.2l.225.2,10.2,9.99a3.064,3.064,0,0,0,.182-1.042V11.951A3.066,3.066,0,0,0,32.1,8.885H22.027V6.257H32.1A5.7,5.7,0,0,1,37.8,11.951V32.1A5.7,5.7,0,0,1,32.1,37.8H11.951A5.7,5.7,0,0,1,6.257,32.1ZM33.119,35,22.946,25.031a1.315,1.315,0,0,0-1.692-.124l-.146.124L10.932,34.995a3.065,3.065,0,0,0,1.019.173H32.1A3.059,3.059,0,0,0,33.119,35ZM27.725,12.389a3.946,3.946,0,1,1-3.946,3.946A3.946,3.946,0,0,1,27.725,12.389Zm0,2.628a1.318,1.318,0,1,0,1.318,1.318A1.318,1.318,0,0,0,27.725,15.018Z" transform="translate(-1 -1)" fill="#333"/>
</svg>
