<svg xmlns="http://www.w3.org/2000/svg" width="44.015" height="35.257" viewBox="0 0 44.015 35.257">
  <path id="Downloadbereich-Icon" d="M41.67,16.124V14.467a4.958,4.958,0,0,0-4.958-4.958H24.1L18.849,5.146A4.958,4.958,0,0,0,15.679,4H6.963A4.958,4.958,0,0,0,2,8.956L2,34.3a4.958,4.958,0,0,0,4.958,4.96H38.3a3.856,3.856,0,0,0,3.741-2.921l3.856-15.421a3.856,3.856,0,0,0-3.741-4.792ZM6.963,7.305h8.716a1.653,1.653,0,0,1,1.057.382l5.706,4.745a1.653,1.653,0,0,0,1.057.382H36.712a1.653,1.653,0,0,1,1.653,1.653v1.657H11.754a4.958,4.958,0,0,0-4.81,3.756L5.3,26.44,5.31,8.957A1.653,1.653,0,0,1,6.963,7.305Zm3.188,13.376a1.653,1.653,0,0,1,1.6-1.252h30.4a.551.551,0,0,1,.534.684L38.831,35.535a.551.551,0,0,1-.534.417H7.039a.551.551,0,0,1-.534-.684Z" transform="translate(-1.996 -4)" fill="#333"/>
</svg>
