<svg xmlns="http://www.w3.org/2000/svg" width="40" height="42" viewBox="0 0 40 42">
  <path id="Kontakt-Icon-weiss" d="M22,4A10,10,0,1,0,32,14,10,10,0,0,0,22,4ZM14.5,14A7.5,7.5,0,1,1,22,21.5,7.5,7.5,0,0,1,14.5,14ZM10.25,28A4.249,4.249,0,0,0,6,32.249V33a9.527,9.527,0,0,0,4.92,8.38A21.593,21.593,0,0,0,22,44V41.5a19.149,19.149,0,0,1-9.78-2.255A7.036,7.036,0,0,1,8.5,33v-.751A1.749,1.749,0,0,1,10.25,30.5H22V30a3.982,3.982,0,0,1,.535-2ZM24,31a3,3,0,0,1,3-3H43a3,3,0,0,1,3,3v.79L35,36.9,24,31.79Zm11.421,7.907L46,34v9a3,3,0,0,1-3,3H27a3,3,0,0,1-3-3V34l10.579,4.912A1,1,0,0,0,35.421,38.907Z" transform="translate(-6 -4)" fill="#fff"/>
</svg>
