<?xml version="1.0" encoding="utf-8"?>
<!-- Generator: Adobe Illustrator 14.0.0, SVG Export Plug-In . SVG Version: 6.00 Build 43363)  -->
<!DOCTYPE svg PUBLIC "-//W3C//DTD SVG 1.1//EN" "http://www.w3.org/Graphics/SVG/1.1/DTD/svg11.dtd">
<svg version="1.1" id="Ebene_1" xmlns="http://www.w3.org/2000/svg" xmlns:xlink="http://www.w3.org/1999/xlink" x="0px" y="0px"
	 width="1024px" height="285px" viewBox="0 0 1024 285" enable-background="new 0 0 1024 285" xml:space="preserve">
<path fill-rule="evenodd" clip-rule="evenodd" fill="#151415" d="M238.545,130.618c0-8.299-4.88-16.353-14.64-18.426v-0.242
	c7.808-3.053,13.055-10.248,13.055-18.426c0-13.173-9.885-20.369-27.688-20.369c-10.134,0-20.869,0.239-27.819,0.609v82.224
	c10.369,0,19.028,0.246,24.033,0.246C230.37,156.233,238.545,142.572,238.545,130.618 M220.25,96.087
	c0,7.323-5.614,11.712-16.475,11.712c-2.561,0-4.513,0-6.465-0.121V86.206c2.81-0.121,5.974-0.242,9.269-0.242
	C216.588,85.964,220.25,89.989,220.25,96.087z M221.593,130.978c0,7.448-5.254,12.324-15.623,12.324
	c-3.654,0-6.707-0.242-8.659-0.49v-23.055c1.71-0.127,5.731-0.127,6.956-0.127C214.636,119.629,221.593,122.931,221.593,130.978z"/>
<path fill="#151415" d="M323.176,124.024V73.643h-15.74v51.361c0,14.024-5.123,19.149-17.319,19.149
	c-13.664,0-17.077-7.319-17.077-17.688V73.643h-15.864v53.801c0,15.737,5.855,29.889,31.841,29.889
	C310.73,157.333,323.176,146.594,323.176,124.024"/>
<path fill="#151415" d="M393.056,130.49c0-25.736-34.646-20.25-34.646-35.015c0-5.856,4.638-9.999,13.789-9.999
	c5.004,0,10.821,1.038,15.458,2.381l0.157-14.093c-4.88-0.852-10.244-1.461-14.889-1.461c-19.756,0-31.35,10.121-31.35,24.764
	c0,27.086,34.526,19.88,34.526,35.625c0,7.559-6.223,10.851-14.279,10.851c-5.975,0-13.311-1.52-17.941-3.112l-0.236,14.944
	c5.129,1.35,10.985,1.959,16.841,1.959C380.734,157.333,393.056,145.985,393.056,130.49"/>
<path fill="#151415" d="M466.977,153.429l-1.835-14.151c-4.271,1.952-10.979,3.413-15.982,3.413c-16.586,0-24.033-10-24.033-27.938
	c0-15.983,7.565-27.567,22.939-27.567c5.607,0,11.221,0.852,16.585,2.433l1.717-14.391c-5.372-1.464-11.595-2.194-17.45-2.194
	c-27.577,0-41.229,18.298-41.229,44.405c0,20.496,9.27,39.646,38.058,39.646C453.43,157.085,460.871,155.624,466.977,153.429"/>
<polyline fill="#151415" points="552.229,155.987 552.229,73.643 536.364,73.643 536.364,106.584 501.477,106.584 501.477,73.643 
	485.612,73.643 485.612,155.987 501.477,155.987 501.477,120.249 536.364,120.249 536.364,155.987 552.229,155.987 "/>
<rect x="573.708" y="107.659" fill="#151415" width="30.007" height="12.442"/>
<path fill="#151415" d="M644.053,132.93V73.643H628.2v58.678c0,8.908-3.295,11.348-9.033,11.348c-2.928,0-5.606-0.488-7.565-1.219
	v13.662c2.804,0.484,5.862,0.973,10.252,0.973C638.569,157.085,644.053,146.473,644.053,132.93"/>
<path fill-rule="evenodd" clip-rule="evenodd" fill="#151415" d="M733.714,155.987l-29.398-82.345h-17.935l-28.789,82.345h15.977
	l5.731-16.831h31.114l5.731,16.831H733.714 M706.261,126.586h-22.933l7.435-20.981c1.592-4.755,2.935-9.518,3.904-13.785h0.131
	c0.97,4.638,2.194,8.66,3.779,13.173L706.261,126.586z"/>
<polyline fill="#151415" points="792.144,155.987 792.144,142.45 763.229,142.45 763.229,120.121 790.676,120.121 790.676,107.193 
	763.229,107.193 763.229,86.937 792.144,86.937 792.144,73.643 747.371,73.643 747.371,155.987 792.144,155.987 "/>
<path fill="#151415" d="M877.776,75.958c-7.088-2.073-15.138-3.534-23.313-3.534c-28.547,0-46.115,18.417-46.115,44.281
	c0,25.134,15.498,40.507,41.608,40.507c9.878,0,20.005-1.838,28.18-5.122v-39.289h-15.865v28.671
	c-3.164,0.979-6.583,1.467-10.487,1.467c-16.71,0-26.228-10.248-26.228-27.695c0-18.426,11.712-28.667,27.938-28.667
	c7.684,0,15.249,1.582,21.839,4.143L877.776,75.958"/>
<polyline fill="#151415" points="944.597,155.987 944.597,142.45 915.677,142.45 915.677,120.121 943.129,120.121 943.129,107.193 
	915.677,107.193 915.677,86.937 944.597,86.937 944.597,73.643 899.818,73.643 899.818,155.987 944.597,155.987 "/>
<path fill-rule="evenodd" clip-rule="evenodd" fill="#151415" d="M1024,155.987l-19.763-27.692
	c-2.069-2.803-4.395-5.977-6.707-9.026c12.445-1.952,20.98-10.739,20.98-22.933c0-16.838-11.712-23.182-29.883-23.182
	c-9.518,0-17.201,0.121-23.666,0.488v82.345h15.852v-34.036h0.609l22.939,34.036H1024 M1001.926,97.918
	c0,7.687-5.856,12.564-15.374,12.564c-2.443,0-4.638-0.122-5.738-0.243V86.448c1.592-0.242,3.904-0.363,6.229-0.363
	C997.039,86.085,1001.926,89.989,1001.926,97.918z"/>
<path fill-rule="evenodd" clip-rule="evenodd" fill="#04A0CF" d="M2.417,200.081c-0.838-2.925-2.221-5.768-2.221-9.036
	c0-10.766,8.732-19.298,19.494-19.298h20.784c7.238,0,13.101,5.863,13.101,13.095c0,7.237-5.862,12.903-13.101,12.903h-9.36
	l27.178,46.875l28.763-46.875H77.7c-7.237,0-13.101-5.666-13.101-12.903c0-7.231,5.863-13.095,13.101-13.095h20.771
	c10.775,0,19.501,8.532,19.501,19.298c0,3.334-0.839,6.327-2.306,9.063l-46.776,79.685c-2.293,3.154-6,5.208-10.199,5.208
	c-4.192,0-7.756-2.168-10.042-5.319L2.562,200.107L2.417,200.081 M82.816,112.902c-1.487,0.612-3.118,0.94-4.821,0.94
	c-7.067,0-12.806-5.729-12.806-12.8c0-5.263,3.177-9.78,7.716-11.751c11.116-5.25,19.068-16.602,19.068-29.706
	c0-18.112-14.679-32.794-32.784-32.794c-18.118,0-32.798,14.683-32.798,32.794c0,13.071,7.284,22.946,17.07,29.083
	c4.599,1.542,9.518,6.439,9.518,12.374c0,7.071-5.731,12.8-12.8,12.8c-2.437,0-4.689-0.321-6.629-1.503
	C13.717,102.923,0,82.705,0,59.291C0,26.873,26.28,0.599,58.691,0.599c32.418,0,58.691,26.274,58.691,58.691
	c0,24.394-14.883,45.315-36.066,54.168L82.816,112.902z M104.105,127.238c7.945,0,14.385,6.439,14.385,14.381
	c0,7.933-6.439,14.374-14.385,14.374h-89.53c-7.939,0-14.379-6.441-14.379-14.374c0-7.942,6.439-14.381,14.379-14.381H104.105z"/>
</svg>
