<svg width="131" height="24" viewBox="0 0 131 24" fill="none" xmlns="http://www.w3.org/2000/svg">
<g clip-path="url(#clip0_905_548)">
<path d="M12.1151 1.57081H16.08V23.5526H12.1151V1.57081ZM0 11.1842V7.97977H2.26458V5.78065C2.26458 2.05018 4.43574 -0.00157823 7.80271 -0.00157823C8.47635 -0.00275008 9.14491 0.114691 9.77768 0.345353L9.08635 3.83335C8.73132 3.71241 8.35908 3.64942 7.98396 3.64682C6.81991 3.64682 6.22199 4.33696 6.22199 5.68739V7.98163H9.62821V11.1861H6.2276V23.5526H2.26458V11.1842H0Z" fill="black"/>
<path d="M22.971 13.8214H31.3417C30.9681 11.8106 29.4845 10.5553 27.2498 10.5553C25.2057 10.5553 23.5689 11.9692 22.971 13.8214ZM34.9909 16.7125H22.971C23.2233 19.1 24.8899 20.6071 27.2498 20.6071C29.1706 20.6071 30.585 19.6652 31.5604 17.7496L34.52 19.4488C33.0402 22.4966 30.6168 24.0037 27.1881 24.0037C26.1327 24.0256 25.0837 23.8337 24.1046 23.4398C23.1254 23.0458 22.2364 22.4578 21.4912 21.7113C19.9497 20.1706 19.1631 18.1916 19.1631 15.7743C19.1631 13.3569 19.9497 11.4078 21.523 9.86707C22.2954 9.11131 23.2108 8.51659 24.2159 8.11757C25.2209 7.71856 26.2954 7.52324 27.3769 7.54299C29.6097 7.54299 31.4352 8.26483 32.8515 9.7421C34.2678 11.2194 34.9909 13.0715 34.9909 15.3378V16.7125Z" fill="black"/>
<path d="M61.5343 20.6034C62.1309 20.6124 62.7233 20.5015 63.276 20.2772C63.8288 20.0528 64.3307 19.7198 64.7518 19.2978C65.6767 18.3913 66.1233 17.2162 66.1233 15.7743C66.1233 14.3325 65.6767 13.163 64.7518 12.2826C64.3374 11.8492 63.8376 11.5061 63.2838 11.275C62.7301 11.0439 62.1344 10.9297 61.5343 10.9397C60.9389 10.9299 60.348 11.0443 59.7995 11.2755C59.2509 11.5068 58.7567 11.8498 58.3486 12.2826C57.4554 13.1556 57.0089 14.3344 57.0089 15.7743C57.0089 17.2143 57.4554 18.3857 58.3486 19.2978C58.7635 19.7192 59.2598 20.0522 59.8074 20.2766C60.3549 20.501 60.9424 20.6122 61.5343 20.6034ZM69.6453 15.7706C69.6453 18.3446 68.8419 20.3554 67.2313 21.8326C65.6695 23.2282 63.6471 23.9998 61.5511 23.9998C59.4551 23.9998 57.4327 23.2282 55.871 21.8326C54.2921 20.3554 53.4868 18.3446 53.4868 15.7706C53.4868 13.1966 54.2921 11.184 55.871 9.73844C57.3967 8.29216 59.4306 7.50235 61.5343 7.53933C63.741 7.53933 65.6449 8.26118 67.2294 9.73844C68.84 11.1846 69.6447 13.1953 69.6434 15.7706" fill="#FF9389"/>
<path d="M91.4503 1.57048H95.7926V5.71691H91.4503V1.57048ZM91.6371 23.5598V11.1839H85.7533V23.5523H81.7885V11.1839H76.8183V23.5523H72.8534V11.1839H70.5889V7.97944H72.8534V5.78032C72.8534 2.04985 75.0246 -0.00190908 78.3916 -0.00190908C79.0676 -0.00455779 79.7388 0.112268 80.374 0.343161L79.6827 3.83115C79.3277 3.71021 78.9554 3.64723 78.5803 3.64463C77.4162 3.64463 76.8183 4.33476 76.8183 5.6852V7.97944H81.7903V5.78032C81.7903 2.04985 84.0325 -0.00190908 87.3285 -0.00190908C88.0045 -0.00455779 88.6757 0.112268 89.3109 0.343161L88.6196 3.83115C88.2645 3.71021 87.8923 3.64723 87.5172 3.64463C86.3531 3.64463 85.7552 4.33476 85.7552 5.6852V7.97944H95.6039V23.5523L91.6371 23.5598Z" fill="black"/>
<path d="M113.377 19.5086C111.899 22.4929 109.453 24.0001 106.077 24.0001C103.717 24.0001 101.766 23.254 100.193 21.7375C98.6514 20.1987 97.8647 18.2197 97.8647 15.7688C97.8647 13.344 98.6514 11.3705 100.256 9.83171C101.861 8.29289 103.78 7.53748 106.077 7.53748C109.507 7.53748 112.119 9.108 113.22 11.779L109.98 13.9147C109.162 12.1241 107.839 11.2437 106.045 11.2437C103.653 11.2437 101.891 13.0977 101.891 15.7688C101.891 18.5013 103.623 20.292 106.045 20.292C108.059 20.292 109.191 19.3482 110.169 17.4326L113.377 19.5086Z" fill="black"/>
<path d="M118.978 13.8213H127.349C126.975 11.8106 125.494 10.5553 123.259 10.5553C121.213 10.5553 119.576 11.9692 118.978 13.8213ZM131 16.7125H118.978C119.231 19.1 120.899 20.6071 123.259 20.6071C125.178 20.6071 126.594 19.6651 127.57 17.7495L130.527 19.445C129.049 22.4928 126.626 23.9999 123.196 23.9999C122.14 24.0218 121.092 23.8299 120.113 23.4359C119.134 23.0419 118.245 22.454 117.5 21.7076C115.959 20.1669 115.172 18.1879 115.172 15.7705C115.172 13.3532 115.959 11.404 117.532 9.86331C118.304 9.10822 119.219 8.5139 120.223 8.11491C121.227 7.71591 122.3 7.52022 123.381 7.53923C125.623 7.53923 127.441 8.26107 128.857 9.73834C130.273 11.2156 130.996 13.0678 130.996 15.3341L131 16.7125Z" fill="black"/>
<path d="M52.5337 8.02985H49.9608L44.7085 13.273L39.4058 7.97949H36.9376V10.4435L42.2122 15.765L36.8853 21.0828V23.5486H39.3554L44.6973 18.2719L49.9776 23.599H52.4813V21.0306L47.2197 15.778L52.5337 10.5293V8.02985Z" fill="#FF9389"/>
</g>
<defs>
<clipPath id="clip0_905_548">
<rect width="131" height="24" fill="white"/>
</clipPath>
</defs>
</svg>
