<?xml version="1.0" encoding="UTF-8"?><svg id="Ebene_2" xmlns="http://www.w3.org/2000/svg" viewBox="0 0 419 177.55"><defs><style>.cls-1,.cls-2{fill:#fff;}.cls-2{fill-rule:evenodd;}</style></defs><g id="Ebene_1-2"><g><g><path class="cls-2" d="M273.8,91.28c-.43-19.36-16.26-34.92-35.72-34.92s-35.73,16-35.73,35.73,15.99,35.73,35.73,35.73c7.53,0,14.53-2.33,20.29-6.32,1.07,3.1,4.02,5.33,7.49,5.33,4.38,0,7.94-3.56,7.94-7.94v-26.8c0-.27,0-.54,0-.81Zm-35.72,20.66c-10.96,0-19.85-8.88-19.85-19.85s8.88-19.85,19.85-19.85,19.85,8.88,19.85,19.85-8.89,19.85-19.85,19.85Z"/><path class="cls-2" d="M273.81,91.32v.77c0-.27,0-.54,0-.81,0,.02,0,.02,0,.04Z"/><path class="cls-2" d="M383.27,56.36c-19.73,0-35.73,16-35.73,35.73s16,35.73,35.73,35.73,35.73-16,35.73-35.73-16-35.73-35.73-35.73Zm0,55.57c-10.96,0-19.85-8.88-19.85-19.85s8.88-19.85,19.85-19.85,19.85,8.88,19.85,19.85-8.88,19.85-19.85,19.85Z"/><rect class="cls-1" x="287.8" y="65.62" width="15.88" height="61.21" rx="7.94" ry="7.94"/><path class="cls-1" d="M303.68,48.43c0,2.97-1.63,5.55-4.04,6.91-1.15,.65-2.48,1.02-3.89,1.02-4.38,0-7.94-3.56-7.94-7.94,0-1.42,.37-2.75,1.02-3.9,1.36-2.41,3.95-4.04,6.92-4.04,4.38,0,7.94,3.56,7.94,7.94Z"/><rect class="cls-1" x="317.67" y="65.43" width="15.88" height="61.21" rx="7.94" ry="7.94"/><path class="cls-1" d="M333.55,48.2c0,2.97-1.63,5.55-4.04,6.91-1.15,.65-2.48,1.02-3.89,1.02-4.38,0-7.94-3.56-7.94-7.94,0-1.42,.37-2.75,1.02-3.9,1.36-2.41,3.95-4.04,6.92-4.04,4.38,0,7.94,3.56,7.94,7.94Z"/></g><g><circle class="cls-1" cx="88.77" cy="88.77" r="29.59" transform="translate(-8.32 9.18) rotate(-5.65)"/><path class="cls-1" d="M88.77,0C39.74,0,0,39.74,0,88.77s39.74,88.77,88.77,88.77,88.77-39.74,88.77-88.77S137.8,0,88.77,0Zm53.26,128.72c0,6.53-5.31,11.84-11.84,11.84-5.18,0-9.57-3.32-11.17-7.95-8.59,5.94-19.02,9.42-30.25,9.42-29.42,0-53.26-23.85-53.26-53.26s23.84-53.26,53.26-53.26c8.89,0,17.27,2.18,24.64,6.04-.62,1.83-.97,3.76-.97,5.8,0,9.8,7.95,17.75,17.75,17.75,2.04,0,3.99-.35,5.8-.99,3.68,7.03,5.84,15,6.02,23.45,.01,.4,.01,.8,.01,1.21v39.95Zm-6.04-71.07c-.96,.55-2.02,.97-3.14,1.22-.85,.2-1.75,.31-2.66,.31-6.53,0-11.83-5.3-11.83-11.83,0-.92,.11-1.8,.29-2.66,.26-1.12,.67-2.19,1.24-3.16,2.03-3.59,5.89-6.02,10.3-6.02,6.53,0,11.84,5.31,11.84,11.84,0,4.42-2.43,8.27-6.04,10.3Z"/></g></g></g></svg>