<?xml version="1.0" encoding="utf-8"?>
<!-- Generator: Adobe Illustrator 29.5.1, SVG Export Plug-In . SVG Version: 9.03 Build 0)  -->
<svg version="1.1" id="Ebene_1" xmlns="http://www.w3.org/2000/svg" xmlns:xlink="http://www.w3.org/1999/xlink" x="0px" y="0px"
	 viewBox="0 0 184.25 198.43" style="enable-background:new 0 0 184.25 198.43;" xml:space="preserve">
<style type="text/css">
	.st0{fill:#FFFFFF;}
	.st1{fill:none;stroke:#000000;stroke-miterlimit:10;}
	.st2{clip-path:url(#SVGID_00000158024484638006325550000000207912896298781068_);fill:none;stroke:#000000;stroke-miterlimit:10;}
	.st3{fill:#E3000F;}
	.st4{clip-path:url(#SVGID_00000161599446944785382130000008858532513609529523_);fill:#FFFFFF;}
	.st5{clip-path:url(#SVGID_00000029031112481758783730000018325208297168505487_);fill:#FFFFFF;}
	.st6{clip-path:url(#SVGID_00000070114715029829004200000005886267720671692204_);fill:#E3000F;}
</style>
<rect x="1" y="16.94" class="st0" width="183.25" height="180.98"/>
<rect x="0.5" class="st0" width="183.25" height="180.98"/>
<rect x="0.5" class="st1" width="183.25" height="180.98"/>
<g>
	<defs>
		<rect id="SVGID_1_" width="184.25" height="198.43"/>
	</defs>
	<clipPath id="SVGID_00000131335118874879548760000003276428253002279067_">
		<use xlink:href="#SVGID_1_"  style="overflow:visible;"/>
	</clipPath>
	
		<rect x="0.5" y="0.55" style="clip-path:url(#SVGID_00000131335118874879548760000003276428253002279067_);fill:none;stroke:#000000;stroke-miterlimit:10;" width="183.25" height="197.33"/>
</g>
<g>
	<g>
		<defs>
			<rect id="SVGID_00000101821471217419181290000010377098426173751461_" x="127.13" y="6.91" width="48.29" height="39.38"/>
		</defs>
		<clipPath id="SVGID_00000018935321958320591730000014353985637188776105_">
			<use xlink:href="#SVGID_00000101821471217419181290000010377098426173751461_"  style="overflow:visible;"/>
		</clipPath>
	</g>
</g>
<g>
</g>
<g>
</g>
<rect x="8" y="158.43" class="st3" width="167.44" height="14.34"/>
<g>
	<defs>
		<rect id="SVGID_00000129198447385970297120000009894278160376533940_" y="151.43" width="191.05" height="29.29"/>
	</defs>
	<clipPath id="SVGID_00000181808433254310522780000011752505474655652241_">
		<use xlink:href="#SVGID_00000129198447385970297120000009894278160376533940_"  style="overflow:visible;"/>
	</clipPath>
	<path style="clip-path:url(#SVGID_00000181808433254310522780000011752505474655652241_);fill:#FFFFFF;" d="M164.63,166.18
		c0.18-0.25,0.46-0.38,0.82-0.38c0.32,0,0.58,0.11,0.79,0.34c0.21,0.22,0.31,0.52,0.31,0.89c0,0.42-0.1,0.75-0.31,0.97
		s-0.46,0.34-0.77,0.34c-0.32,0-0.59-0.12-0.8-0.35c-0.21-0.23-0.32-0.56-0.32-0.97C164.36,166.71,164.45,166.43,164.63,166.18
		 M164.76,162.95c0.17-0.17,0.4-0.26,0.69-0.26c0.28,0,0.5,0.09,0.67,0.26c0.17,0.17,0.26,0.4,0.26,0.68c0,0.3-0.09,0.54-0.26,0.71
		s-0.4,0.26-0.69,0.26c-0.28,0-0.51-0.08-0.68-0.25s-0.26-0.4-0.26-0.7C164.5,163.35,164.58,163.12,164.76,162.95 M163.19,165.98
		c-0.21,0.36-0.32,0.75-0.32,1.17c0,0.77,0.28,1.38,0.84,1.83c0.48,0.38,1.07,0.56,1.79,0.56c0.77,0,1.39-0.23,1.85-0.68
		c0.46-0.45,0.69-1.04,0.69-1.77c0-0.44-0.11-0.83-0.34-1.17c-0.23-0.34-0.56-0.59-1-0.77c0.34-0.15,0.61-0.37,0.8-0.65
		c0.19-0.29,0.29-0.61,0.29-0.98c0-0.59-0.21-1.07-0.62-1.46c-0.41-0.38-1-0.57-1.74-0.57c-0.76,0-1.34,0.19-1.75,0.57
		c-0.41,0.38-0.62,0.87-0.62,1.46c0,0.34,0.09,0.66,0.27,0.95c0.18,0.29,0.46,0.51,0.85,0.68
		C163.73,165.35,163.4,165.62,163.19,165.98 M160.1,163.04c-0.71,0.89-1.28,1.9-1.7,3.04c-0.43,1.13-0.65,2.24-0.67,3.33h1.46
		c0-0.7,0.11-1.48,0.34-2.37c0.23-0.88,0.57-1.72,1.01-2.5c0.44-0.78,0.87-1.39,1.3-1.8v-1.1h-5.16v1.4H160.1z M153.59,165.29
		c-0.2,0.23-0.44,0.34-0.73,0.34c-0.3,0-0.55-0.12-0.75-0.36c-0.2-0.24-0.3-0.61-0.3-1.12c0-0.5,0.09-0.86,0.28-1.08
		c0.18-0.22,0.42-0.33,0.7-0.33c0.29,0,0.55,0.13,0.78,0.4c0.22,0.27,0.34,0.65,0.34,1.13
		C153.89,164.73,153.79,165.06,153.59,165.29 M151.2,169.05c0.38,0.33,0.88,0.49,1.49,0.49c0.85,0,1.55-0.32,2.08-0.96
		c0.53-0.64,0.8-1.68,0.8-3.12c0-1.41-0.26-2.43-0.77-3.05s-1.17-0.93-1.97-0.93c-0.73,0-1.34,0.24-1.81,0.73
		c-0.47,0.49-0.71,1.13-0.71,1.93c0,0.77,0.22,1.39,0.67,1.87c0.45,0.48,0.98,0.72,1.6,0.72c0.57,0,1.04-0.22,1.42-0.66
		c-0.06,0.9-0.2,1.5-0.42,1.78c-0.22,0.29-0.48,0.43-0.79,0.43c-0.25,0-0.45-0.07-0.6-0.21c-0.15-0.14-0.24-0.36-0.28-0.66
		l-1.46,0.16C150.58,168.23,150.82,168.72,151.2,169.05 M148.07,161.49h-1.22c-0.17,0.48-0.49,0.9-0.95,1.26
		c-0.46,0.36-0.89,0.6-1.28,0.73v1.37c0.75-0.25,1.4-0.63,1.95-1.14v5.69h1.51V161.49z M139.18,163.7v-2.01l-1.51,0.88v1.13h-0.69
		v1.2h0.69v2.49c0,0.53,0.02,0.89,0.05,1.06c0.04,0.25,0.11,0.44,0.21,0.59c0.1,0.15,0.26,0.26,0.48,0.35
		c0.22,0.09,0.46,0.14,0.74,0.14c0.44,0,0.84-0.08,1.19-0.23l-0.13-1.17c-0.26,0.1-0.47,0.15-0.61,0.15c-0.1,0-0.19-0.03-0.26-0.08
		c-0.07-0.05-0.11-0.11-0.13-0.19c-0.02-0.08-0.03-0.35-0.03-0.81v-2.3h1.03v-1.2H139.18z M135.94,163.7h-1.51v5.7h1.51V163.7z
		 M135.94,161.53h-1.51v1.4h1.51V161.53z M129.33,166.06c0-0.41,0.1-0.74,0.32-0.98c0.21-0.24,0.49-0.36,0.82-0.36
		c0.31,0,0.57,0.11,0.78,0.34c0.21,0.23,0.33,0.56,0.34,1H129.33z M131.14,168.21c-0.16,0.13-0.36,0.19-0.6,0.19
		c-0.35,0-0.64-0.12-0.87-0.37c-0.23-0.25-0.35-0.6-0.36-1.04h3.78c0.02-1.16-0.21-2.01-0.7-2.58c-0.49-0.56-1.16-0.84-2.01-0.84
		c-0.76,0-1.38,0.27-1.88,0.8c-0.49,0.54-0.74,1.28-0.74,2.22c0,0.79,0.19,1.45,0.56,1.97c0.48,0.65,1.21,0.97,2.2,0.97
		c0.63,0,1.15-0.14,1.57-0.43c0.42-0.29,0.72-0.71,0.92-1.26l-1.5-0.25C131.42,167.87,131.3,168.08,131.14,168.21 M122.33,169.06
		c0.45,0.32,1.07,0.47,1.85,0.47c0.86,0,1.5-0.19,1.94-0.56c0.44-0.38,0.65-0.83,0.65-1.35c0-0.48-0.16-0.85-0.47-1.12
		c-0.32-0.26-0.88-0.49-1.68-0.67c-0.8-0.18-1.27-0.32-1.41-0.43c-0.1-0.07-0.15-0.17-0.15-0.27c0-0.12,0.06-0.23,0.17-0.31
		c0.17-0.11,0.46-0.17,0.85-0.17c0.32,0,0.56,0.06,0.73,0.18c0.17,0.12,0.28,0.29,0.35,0.51l1.42-0.26c-0.14-0.5-0.4-0.87-0.78-1.13
		c-0.38-0.25-0.96-0.38-1.74-0.38c-0.82,0-1.42,0.17-1.81,0.51c-0.39,0.34-0.59,0.75-0.59,1.25c0,0.55,0.23,0.98,0.68,1.28
		c0.33,0.22,1.1,0.47,2.32,0.74c0.26,0.06,0.43,0.13,0.5,0.2c0.07,0.08,0.11,0.17,0.11,0.29c0,0.17-0.07,0.3-0.2,0.4
		c-0.2,0.14-0.49,0.21-0.88,0.21c-0.35,0-0.63-0.08-0.83-0.23c-0.2-0.15-0.33-0.38-0.39-0.67l-1.52,0.23
		C121.58,168.31,121.88,168.74,122.33,169.06 M112.93,169.06c0.45,0.32,1.07,0.47,1.85,0.47c0.86,0,1.5-0.19,1.94-0.56
		c0.44-0.38,0.65-0.83,0.65-1.35c0-0.48-0.16-0.85-0.47-1.12c-0.32-0.26-0.88-0.49-1.68-0.67c-0.8-0.18-1.27-0.32-1.41-0.43
		c-0.1-0.07-0.15-0.17-0.15-0.27c0-0.12,0.06-0.23,0.17-0.31c0.17-0.11,0.46-0.17,0.85-0.17c0.32,0,0.56,0.06,0.73,0.18
		c0.17,0.12,0.29,0.29,0.35,0.51l1.42-0.26c-0.14-0.5-0.4-0.87-0.78-1.13c-0.38-0.25-0.96-0.38-1.74-0.38
		c-0.82,0-1.43,0.17-1.82,0.51c-0.39,0.34-0.58,0.75-0.58,1.25c0,0.55,0.22,0.98,0.68,1.28c0.33,0.22,1.1,0.47,2.32,0.74
		c0.26,0.06,0.43,0.13,0.5,0.2c0.07,0.08,0.11,0.17,0.11,0.29c0,0.17-0.07,0.3-0.2,0.4c-0.2,0.14-0.49,0.21-0.88,0.21
		c-0.35,0-0.63-0.08-0.83-0.23c-0.2-0.15-0.33-0.38-0.39-0.67l-1.51,0.23C112.19,168.31,112.48,168.74,112.93,169.06 M110.39,163.7
		v-2.01l-1.51,0.88v1.13h-0.69v1.2h0.69v2.49c0,0.53,0.02,0.89,0.05,1.06c0.04,0.25,0.11,0.44,0.21,0.59
		c0.1,0.15,0.26,0.26,0.48,0.35c0.22,0.09,0.46,0.14,0.74,0.14c0.44,0,0.84-0.08,1.19-0.23l-0.13-1.17
		c-0.26,0.1-0.47,0.15-0.61,0.15c-0.1,0-0.18-0.03-0.25-0.08c-0.07-0.05-0.12-0.11-0.13-0.19c-0.02-0.08-0.03-0.35-0.03-0.81v-2.3
		h1.03v-1.2H110.39z M102.93,169.06c0.45,0.32,1.07,0.47,1.85,0.47c0.86,0,1.5-0.19,1.94-0.56c0.44-0.38,0.66-0.83,0.66-1.35
		c0-0.48-0.16-0.85-0.47-1.12c-0.32-0.26-0.88-0.49-1.68-0.67c-0.8-0.18-1.27-0.32-1.41-0.43c-0.1-0.07-0.15-0.17-0.15-0.27
		c0-0.12,0.06-0.23,0.17-0.31c0.17-0.11,0.46-0.17,0.85-0.17c0.32,0,0.56,0.06,0.73,0.18c0.17,0.12,0.29,0.29,0.35,0.51l1.42-0.26
		c-0.14-0.5-0.4-0.87-0.78-1.13c-0.38-0.25-0.96-0.38-1.74-0.38c-0.82,0-1.43,0.17-1.82,0.51c-0.39,0.34-0.58,0.75-0.58,1.25
		c0,0.55,0.22,0.98,0.68,1.28c0.32,0.22,1.1,0.47,2.32,0.74c0.26,0.06,0.43,0.13,0.5,0.2c0.07,0.08,0.11,0.17,0.11,0.29
		c0,0.17-0.07,0.3-0.2,0.4c-0.2,0.14-0.49,0.21-0.88,0.21c-0.35,0-0.63-0.08-0.83-0.23c-0.2-0.15-0.33-0.38-0.39-0.67l-1.51,0.23
		C102.18,168.31,102.48,168.74,102.93,169.06 M97.48,166.06c0-0.41,0.1-0.74,0.32-0.98c0.21-0.24,0.49-0.36,0.82-0.36
		c0.31,0,0.57,0.11,0.78,0.34c0.21,0.23,0.33,0.56,0.34,1H97.48z M99.29,168.21c-0.16,0.13-0.36,0.19-0.6,0.19
		c-0.35,0-0.64-0.12-0.87-0.37c-0.23-0.25-0.35-0.6-0.36-1.04h3.78c0.02-1.16-0.21-2.01-0.7-2.58c-0.49-0.56-1.16-0.84-2.01-0.84
		c-0.76,0-1.38,0.27-1.88,0.8c-0.49,0.54-0.74,1.28-0.74,2.22c0,0.79,0.19,1.45,0.56,1.97c0.48,0.65,1.21,0.97,2.2,0.97
		c0.63,0,1.15-0.14,1.57-0.43c0.42-0.29,0.72-0.71,0.92-1.26l-1.5-0.25C99.57,167.87,99.45,168.08,99.29,168.21 M93.71,169.4v-6.54
		h2.33v-1.33h-6.26v1.33h2.34v6.54H93.71z M83.18,166.06c0-0.41,0.1-0.74,0.32-0.98c0.22-0.24,0.49-0.36,0.82-0.36
		c0.31,0,0.57,0.11,0.79,0.34c0.21,0.23,0.33,0.56,0.34,1H83.18z M84.98,168.21c-0.16,0.13-0.36,0.19-0.6,0.19
		c-0.35,0-0.64-0.12-0.87-0.37c-0.23-0.25-0.35-0.6-0.36-1.04h3.78c0.02-1.16-0.21-2.01-0.7-2.58c-0.49-0.56-1.16-0.84-2.01-0.84
		c-0.75,0-1.38,0.27-1.87,0.8c-0.5,0.54-0.74,1.28-0.74,2.22c0,0.79,0.19,1.45,0.56,1.97c0.48,0.65,1.21,0.97,2.2,0.97
		c0.63,0,1.15-0.14,1.57-0.43c0.42-0.29,0.72-0.71,0.92-1.26l-1.5-0.25C85.26,167.87,85.14,168.08,84.98,168.21 M76.77,165.14
		c0.23-0.28,0.53-0.42,0.89-0.42c0.37,0,0.68,0.14,0.92,0.43c0.24,0.29,0.36,0.73,0.36,1.32c0,0.57-0.13,0.99-0.38,1.28
		c-0.25,0.29-0.57,0.43-0.93,0.43c-0.34,0-0.63-0.14-0.87-0.42c-0.24-0.28-0.35-0.72-0.35-1.33
		C76.42,165.85,76.54,165.42,76.77,165.14 M75.07,169.96c0,0.51,0.2,0.93,0.61,1.26c0.4,0.33,1.09,0.5,2.06,0.5
		c0.51,0,0.94-0.05,1.27-0.16c0.33-0.11,0.6-0.26,0.8-0.45c0.2-0.19,0.36-0.45,0.47-0.78c0.11-0.33,0.17-0.84,0.17-1.51v-5.12h-1.41
		v0.8c-0.46-0.62-1.04-0.93-1.75-0.93c-0.68,0-1.26,0.25-1.72,0.76c-0.46,0.5-0.69,1.24-0.69,2.19c0,0.76,0.18,1.4,0.53,1.91
		c0.45,0.65,1.05,0.97,1.82,0.97c0.69,0,1.26-0.31,1.71-0.92v0.83c0,0.34-0.02,0.57-0.07,0.69c-0.07,0.18-0.17,0.3-0.3,0.38
		c-0.2,0.12-0.49,0.18-0.89,0.18c-0.31,0-0.53-0.05-0.68-0.16c-0.1-0.07-0.17-0.21-0.2-0.41l-1.72-0.21
		C75.07,169.85,75.07,169.91,75.07,169.96 M73.56,163.7h-1.51v5.7h1.51V163.7z M73.56,161.53h-1.51v1.4h1.51V161.53z M66.78,165.14
		c0.23-0.28,0.53-0.42,0.89-0.42c0.37,0,0.68,0.14,0.92,0.43c0.24,0.29,0.36,0.73,0.36,1.32c0,0.57-0.13,0.99-0.38,1.28
		c-0.25,0.29-0.56,0.43-0.93,0.43c-0.34,0-0.63-0.14-0.87-0.42c-0.23-0.28-0.35-0.72-0.35-1.33
		C66.43,165.85,66.54,165.42,66.78,165.14 M65.07,169.96c0,0.51,0.2,0.93,0.61,1.26c0.41,0.33,1.09,0.5,2.06,0.5
		c0.51,0,0.94-0.05,1.27-0.16c0.33-0.11,0.6-0.26,0.8-0.45c0.2-0.19,0.36-0.45,0.47-0.78c0.11-0.33,0.17-0.84,0.17-1.51v-5.12h-1.41
		v0.8c-0.46-0.62-1.04-0.93-1.75-0.93c-0.68,0-1.26,0.25-1.72,0.76c-0.46,0.5-0.69,1.24-0.69,2.19c0,0.76,0.17,1.4,0.53,1.91
		c0.45,0.65,1.06,0.97,1.82,0.97c0.69,0,1.26-0.31,1.71-0.92v0.83c0,0.34-0.02,0.57-0.07,0.69c-0.07,0.18-0.17,0.3-0.3,0.38
		c-0.2,0.12-0.49,0.18-0.89,0.18c-0.31,0-0.53-0.05-0.68-0.16c-0.1-0.07-0.17-0.21-0.2-0.41l-1.72-0.21
		C65.07,169.85,65.07,169.91,65.07,169.96 M63.58,165.86c0-0.44-0.03-0.78-0.08-1.01c-0.06-0.24-0.15-0.45-0.3-0.63
		c-0.14-0.19-0.35-0.34-0.63-0.46c-0.28-0.12-0.58-0.18-0.91-0.18c-0.76,0-1.38,0.32-1.88,0.97v-0.84h-1.4v5.7h1.51v-2.58
		c0-0.64,0.04-1.07,0.12-1.31c0.08-0.24,0.22-0.43,0.43-0.57c0.21-0.14,0.44-0.21,0.7-0.21c0.2,0,0.38,0.05,0.52,0.15
		c0.15,0.1,0.25,0.24,0.31,0.42c0.07,0.18,0.1,0.58,0.1,1.19v2.91h1.51V165.86z M56.25,161.39h-1.3v1.29h1.3V161.39z M53.93,161.39
		h-1.29v1.29h1.29V161.39z M55.31,166.96c0,0.36-0.02,0.61-0.06,0.74c-0.06,0.2-0.18,0.36-0.36,0.5c-0.25,0.18-0.51,0.27-0.78,0.27
		c-0.24,0-0.44-0.08-0.6-0.23c-0.16-0.15-0.24-0.34-0.24-0.55c0-0.21,0.1-0.39,0.29-0.53c0.13-0.09,0.4-0.17,0.82-0.26
		c0.42-0.09,0.72-0.17,0.92-0.23V166.96z M53.65,164.88c0.15-0.11,0.36-0.16,0.63-0.16c0.4,0,0.67,0.06,0.81,0.18
		c0.14,0.12,0.22,0.33,0.22,0.62v0.15c-0.27,0.11-0.76,0.24-1.47,0.37c-0.52,0.1-0.92,0.22-1.2,0.35c-0.28,0.13-0.49,0.33-0.65,0.58
		c-0.15,0.25-0.23,0.54-0.23,0.86c0,0.49,0.17,0.89,0.51,1.21c0.34,0.32,0.8,0.48,1.39,0.48c0.33,0,0.65-0.06,0.94-0.19
		c0.29-0.13,0.57-0.31,0.83-0.56c0.01,0.03,0.03,0.09,0.05,0.18c0.06,0.2,0.1,0.35,0.15,0.45h1.49c-0.13-0.27-0.22-0.53-0.27-0.77
		c-0.05-0.24-0.07-0.61-0.07-1.11l0.02-1.76c0-0.66-0.07-1.11-0.2-1.35c-0.14-0.24-0.37-0.45-0.7-0.61
		c-0.33-0.16-0.83-0.24-1.5-0.24c-0.74,0-1.3,0.13-1.68,0.4c-0.38,0.26-0.64,0.67-0.79,1.22l1.37,0.25
		C53.38,165.17,53.5,164.99,53.65,164.88 M45.33,161.53v7.87h1.51v-2.86c0-0.48,0.05-0.84,0.14-1.09s0.24-0.43,0.43-0.55
		c0.2-0.12,0.42-0.18,0.67-0.18c0.22,0,0.4,0.05,0.54,0.14s0.25,0.22,0.3,0.38s0.09,0.54,0.09,1.14v3.01h1.51v-3.35
		c0-0.51-0.03-0.89-0.08-1.13c-0.05-0.24-0.15-0.46-0.29-0.67c-0.14-0.2-0.35-0.36-0.63-0.49c-0.28-0.13-0.59-0.19-0.94-0.19
		c-0.68,0-1.26,0.28-1.75,0.85v-2.9H45.33z M40.3,165.14c0.24-0.28,0.54-0.42,0.9-0.42c0.37,0,0.67,0.14,0.91,0.43
		c0.24,0.29,0.35,0.76,0.35,1.41c0,0.61-0.12,1.06-0.35,1.35c-0.23,0.29-0.52,0.43-0.85,0.43c-0.43,0-0.78-0.2-1.04-0.6
		c-0.19-0.28-0.28-0.72-0.28-1.31C39.94,165.85,40.06,165.42,40.3,165.14 M39.84,169.4v-0.84c0.23,0.32,0.5,0.56,0.82,0.72
		c0.32,0.16,0.64,0.25,0.96,0.25c0.66,0,1.23-0.26,1.69-0.79c0.46-0.53,0.69-1.28,0.69-2.25c0-0.94-0.23-1.66-0.68-2.17
		c-0.46-0.5-1.03-0.75-1.72-0.75c-0.64,0-1.19,0.26-1.65,0.79v-2.84h-1.51v7.87H39.84z M35.42,166.96c0,0.36-0.02,0.61-0.06,0.74
		c-0.06,0.2-0.18,0.36-0.36,0.5c-0.25,0.18-0.51,0.27-0.78,0.27c-0.24,0-0.44-0.08-0.6-0.23c-0.16-0.15-0.24-0.34-0.24-0.55
		c0-0.21,0.1-0.39,0.3-0.53c0.13-0.09,0.4-0.17,0.82-0.26c0.42-0.09,0.73-0.17,0.92-0.23V166.96z M33.77,164.88
		c0.15-0.11,0.36-0.16,0.63-0.16c0.4,0,0.67,0.06,0.81,0.18c0.14,0.12,0.22,0.33,0.22,0.62v0.15c-0.27,0.11-0.76,0.24-1.47,0.37
		c-0.52,0.1-0.92,0.22-1.2,0.35c-0.28,0.13-0.49,0.33-0.65,0.58c-0.15,0.25-0.23,0.54-0.23,0.86c0,0.49,0.17,0.89,0.51,1.21
		c0.34,0.32,0.8,0.48,1.39,0.48c0.33,0,0.65-0.06,0.94-0.19c0.29-0.13,0.57-0.31,0.83-0.56c0.01,0.03,0.03,0.09,0.05,0.18
		c0.06,0.2,0.11,0.35,0.15,0.45h1.49c-0.13-0.27-0.22-0.53-0.27-0.77c-0.05-0.24-0.07-0.61-0.07-1.11l0.02-1.76
		c0-0.66-0.07-1.11-0.2-1.35c-0.13-0.24-0.37-0.45-0.7-0.61s-0.83-0.24-1.5-0.24c-0.74,0-1.3,0.13-1.68,0.4s-0.64,0.67-0.8,1.22
		l1.37,0.25C33.5,165.17,33.62,164.99,33.77,164.88 M30.63,165.86c0-0.44-0.03-0.78-0.08-1.01c-0.06-0.24-0.15-0.45-0.3-0.63
		c-0.14-0.19-0.35-0.34-0.63-0.46c-0.28-0.12-0.58-0.18-0.91-0.18c-0.76,0-1.38,0.32-1.88,0.97v-0.84h-1.4v5.7h1.51v-2.58
		c0-0.64,0.04-1.07,0.12-1.31c0.08-0.24,0.22-0.43,0.43-0.57c0.21-0.14,0.44-0.21,0.7-0.21c0.2,0,0.38,0.05,0.52,0.15
		c0.15,0.1,0.25,0.24,0.31,0.42c0.07,0.18,0.1,0.58,0.1,1.19v2.91h1.51V165.86z M17.39,165.73c0,0.88,0.05,1.55,0.16,2
		c0.07,0.3,0.22,0.6,0.45,0.87c0.23,0.28,0.53,0.5,0.92,0.68c0.39,0.17,0.96,0.26,1.71,0.26c0.62,0,1.13-0.08,1.51-0.24
		c0.39-0.16,0.7-0.37,0.93-0.64c0.23-0.27,0.39-0.6,0.48-0.99s0.13-1.06,0.13-2v-4.14h-1.59v4.36c0,0.62-0.02,1.07-0.07,1.34
		c-0.05,0.27-0.18,0.5-0.41,0.68c-0.23,0.18-0.57,0.28-1.02,0.28c-0.44,0-0.79-0.1-1.05-0.29c-0.26-0.2-0.42-0.45-0.49-0.78
		c-0.04-0.2-0.06-0.64-0.06-1.32v-4.26h-1.59V165.73z"/>
</g>
<polygon class="st3" points="7.65,8.28 7.65,61.47 153.41,61.47 153.4,46.41 175.08,46.42 175.06,8.28 "/>
<g>
	<defs>
		<rect id="SVGID_00000016768114562652266670000003003688988270719106_" x="5.9" y="7.13" width="169.19" height="54.34"/>
	</defs>
	<clipPath id="SVGID_00000023245824828907264530000012704663143500784312_">
		<use xlink:href="#SVGID_00000016768114562652266670000003003688988270719106_"  style="overflow:visible;"/>
	</clipPath>
	<path style="clip-path:url(#SVGID_00000023245824828907264530000012704663143500784312_);fill:#FFFFFF;" d="M46.86,27.59h4.94
		c0.83,0,1.51-0.66,1.53-1.47h0.01v-8.97c0-1.67-1.37-3.02-3.06-3.02H17.95c-1.69,0-3.05,1.35-3.05,3.02v34.36
		c0,1.67,1.36,3.02,3.05,3.02h32.32c1.69,0,3.06-1.35,3.06-3.02l-0.01-8.4c0-0.83-0.68-1.51-1.53-1.51h-4.94
		c-0.85,0-1.53,0.68-1.53,1.51l0.01,1.69c0,1.39-1.14,2.51-2.55,2.51H32.47c-1.41,0-2.55-1.13-2.55-2.51v-7.63l-6.94-6.78v-6.62
		c0-1.39,1.14-2.51,2.54-2.51h17.26c1.41,0,2.55,1.12,2.55,2.51l-0.01,2.31C45.33,26.91,46.01,27.59,46.86,27.59"/>
	<path style="clip-path:url(#SVGID_00000023245824828907264530000012704663143500784312_);fill:#FFFFFF;" d="M98.05,14.13h-4.96
		c-0.85,0-1.52,0.68-1.52,1.51v13.44c0,1.39-1.13,2.51-2.54,2.51H71.64c-1.4,0-2.58-1.12-2.58-2.51V15.64
		c0-0.83-0.71-1.51-1.56-1.51h-4.96c-0.84,0-1.52,0.68-1.52,1.51l0.06,35.86c0,1.67,1.37,3.02,3.05,3.02h8.91
		c1.69,0,3.05-1.35,3.05-3.02V41.32l0.06-0.14c0-1.39,1.14-2.37,2.55-2.37h10.28c1.4,0,2.56,1.12,2.56,2.51l0.02-0.14l-0.02,11.84
		c0,0.83,0.7,1.51,1.54,1.51h4.96c0.84,0,1.53-0.67,1.53-1.51V15.64C99.58,14.81,98.89,14.13,98.05,14.13"/>
	<path style="clip-path:url(#SVGID_00000023245824828907264530000012704663143500784312_);fill:#FFFFFF;" d="M115.88,30.46V15.64
		c0-0.83-0.69-1.51-1.53-1.51h-5.1c-0.84,0-1.57,0.68-1.57,1.51v35.87c0,1.67,1.33,3.02,3.02,3.02h8.98c1.69,0,3.06-1.35,3.06-3.02
		V37.28L115.88,30.46z"/>
	<path style="clip-path:url(#SVGID_00000023245824828907264530000012704663143500784312_);fill:#FFFFFF;" d="M160.64,29.96
		c0,0.83-0.69,1.51-1.53,1.51h-19.35c-0.84,0-1.53-0.67-1.53-1.51v-7.35c0-0.83,0.68-1.51,1.53-1.51h19.35
		c0.84,0,1.53,0.68,1.53,1.51V29.96z M165.37,14.13h-31.99c-1.68,0-3.05,1.35-3.05,3.02v34.35c0,1.67,1.37,3.02,3.05,3.02h9.03
		c1.68,0,3.06-1.35,3.06-3.02V41.21c0-1.39,1.15-2.52,2.56-2.52h17.33c1.69,0,3.05-1.36,3.05-3.02V17.15
		C168.42,15.49,167.06,14.13,165.37,14.13"/>
</g>
<g>
	<path d="M55.53,120.06v-6.44h1.27l2.64,4.3v-4.3h1.21v6.44h-1.31l-2.6-4.2v4.2H55.53z"/>
	<path d="M65.08,120.06v-0.7c-0.17,0.25-0.39,0.45-0.67,0.59c-0.28,0.14-0.57,0.21-0.88,0.21c-0.31,0-0.59-0.07-0.84-0.21
		c-0.25-0.14-0.43-0.33-0.54-0.58c-0.11-0.25-0.17-0.59-0.17-1.03v-2.95h1.23v2.14c0,0.66,0.02,1.06,0.07,1.21
		c0.04,0.15,0.13,0.27,0.25,0.35c0.12,0.09,0.27,0.13,0.46,0.13c0.21,0,0.4-0.06,0.57-0.17c0.17-0.12,0.28-0.26,0.34-0.43
		c0.06-0.17,0.09-0.59,0.09-1.26v-1.97h1.23v4.67H65.08z"/>
	<path d="M69.65,115.39v0.98h-0.84v1.88c0,0.38,0.01,0.6,0.02,0.67c0.02,0.06,0.05,0.12,0.11,0.16c0.06,0.04,0.13,0.06,0.21,0.06
		c0.11,0,0.28-0.04,0.5-0.12l0.11,0.96c-0.29,0.12-0.61,0.18-0.98,0.18c-0.22,0-0.42-0.04-0.6-0.11c-0.18-0.07-0.31-0.17-0.39-0.29
		c-0.08-0.12-0.14-0.28-0.17-0.48c-0.03-0.14-0.04-0.43-0.04-0.87v-2.03H67v-0.98h0.57v-0.93l1.24-0.72v1.65H69.65z"/>
	<path d="M70.01,120.06v-0.96l1.75-2.01c0.29-0.33,0.5-0.56,0.64-0.7c-0.14,0.01-0.33,0.02-0.57,0.02l-1.65,0.01v-1.02h3.86v0.87
		l-1.78,2.06L71.63,119c0.34-0.02,0.56-0.03,0.64-0.03h1.91v1.09H70.01z"/>
	<path d="M77.71,118.57l1.23,0.21c-0.16,0.45-0.41,0.79-0.75,1.03c-0.34,0.24-0.77,0.35-1.28,0.35c-0.81,0-1.41-0.26-1.8-0.79
		c-0.31-0.42-0.46-0.96-0.46-1.61c0-0.77,0.2-1.38,0.61-1.82c0.4-0.44,0.92-0.66,1.53-0.66c0.69,0,1.24,0.23,1.64,0.69
		c0.4,0.46,0.59,1.16,0.58,2.11h-3.09c0.01,0.37,0.11,0.65,0.3,0.85c0.19,0.2,0.43,0.31,0.71,0.31c0.19,0,0.36-0.05,0.49-0.16
		S77.64,118.81,77.71,118.57z M77.78,117.33c-0.01-0.36-0.1-0.63-0.28-0.82c-0.18-0.19-0.39-0.28-0.64-0.28
		c-0.27,0-0.49,0.1-0.67,0.29s-0.26,0.46-0.26,0.8H77.78z"/>
	<path d="M81.19,120.06h-1.23v-4.67h1.15v0.66c0.2-0.31,0.37-0.52,0.53-0.62s0.33-0.15,0.53-0.15c0.28,0,0.55,0.08,0.81,0.23
		l-0.38,1.08c-0.21-0.13-0.4-0.2-0.58-0.2c-0.17,0-0.32,0.05-0.44,0.14c-0.12,0.1-0.21,0.27-0.28,0.52c-0.07,0.25-0.1,0.77-0.1,1.56
		V120.06z"/>
	<path d="M83.46,120.06v-6.44h1.23v2.32c0.38-0.43,0.83-0.65,1.35-0.65c0.57,0,1.04,0.21,1.41,0.62c0.37,0.41,0.56,1,0.56,1.77
		c0,0.8-0.19,1.41-0.57,1.84c-0.38,0.43-0.84,0.65-1.38,0.65c-0.27,0-0.53-0.07-0.79-0.2c-0.26-0.13-0.48-0.33-0.67-0.59v0.69H83.46
		z M84.69,117.62c0,0.48,0.08,0.84,0.23,1.07c0.21,0.33,0.5,0.49,0.85,0.49c0.27,0,0.5-0.12,0.7-0.35c0.19-0.23,0.29-0.6,0.29-1.1
		c0-0.53-0.1-0.92-0.29-1.15c-0.19-0.24-0.44-0.35-0.74-0.35c-0.3,0-0.54,0.12-0.74,0.35C84.79,116.81,84.69,117.16,84.69,117.62z"
		/>
	<path d="M91.71,118.57l1.23,0.21c-0.16,0.45-0.41,0.79-0.75,1.03c-0.34,0.24-0.77,0.35-1.28,0.35c-0.81,0-1.41-0.26-1.8-0.79
		c-0.31-0.42-0.46-0.96-0.46-1.61c0-0.77,0.2-1.38,0.61-1.82c0.4-0.44,0.92-0.66,1.53-0.66c0.69,0,1.24,0.23,1.64,0.69
		c0.4,0.46,0.59,1.16,0.58,2.11h-3.09c0.01,0.37,0.11,0.65,0.3,0.85c0.19,0.2,0.43,0.31,0.71,0.31c0.19,0,0.36-0.05,0.49-0.16
		S91.65,118.81,91.71,118.57z M91.78,117.33c-0.01-0.36-0.1-0.63-0.28-0.82c-0.18-0.19-0.39-0.28-0.64-0.28
		c-0.27,0-0.49,0.1-0.67,0.29s-0.26,0.46-0.26,0.8H91.78z"/>
	<path d="M93.48,115.39h0.69v-0.35c0-0.39,0.04-0.69,0.12-0.88c0.08-0.19,0.24-0.35,0.46-0.47c0.22-0.12,0.51-0.18,0.85-0.18
		c0.35,0,0.7,0.05,1.03,0.16l-0.17,0.86c-0.2-0.05-0.38-0.07-0.57-0.07c-0.18,0-0.31,0.04-0.38,0.13c-0.08,0.08-0.12,0.24-0.12,0.48
		v0.33h0.92v0.97H95.4v3.7h-1.24v-3.7h-0.69V115.39z"/>
	<path d="M98.2,120.06h-1.23v-4.67h1.15v0.66c0.2-0.31,0.37-0.52,0.53-0.62c0.16-0.1,0.33-0.15,0.53-0.15
		c0.28,0,0.55,0.08,0.81,0.23l-0.38,1.08c-0.21-0.13-0.4-0.2-0.58-0.2c-0.17,0-0.32,0.05-0.44,0.14c-0.12,0.1-0.21,0.27-0.28,0.52
		c-0.07,0.25-0.1,0.77-0.1,1.56V120.06z"/>
	<path d="M101.44,116.82l-1.12-0.2c0.13-0.45,0.34-0.79,0.65-1s0.76-0.33,1.37-0.33c0.55,0,0.96,0.07,1.23,0.2
		c0.27,0.13,0.46,0.3,0.57,0.5c0.11,0.2,0.16,0.57,0.16,1.11l-0.01,1.44c0,0.41,0.02,0.71,0.06,0.91c0.04,0.19,0.11,0.4,0.22,0.63
		h-1.22c-0.03-0.08-0.07-0.2-0.12-0.37c-0.02-0.07-0.04-0.12-0.04-0.14c-0.21,0.21-0.44,0.36-0.68,0.46
		c-0.24,0.1-0.5,0.15-0.77,0.15c-0.48,0-0.86-0.13-1.14-0.39c-0.28-0.26-0.42-0.59-0.42-0.99c0-0.26,0.06-0.5,0.19-0.71
		c0.13-0.21,0.3-0.37,0.53-0.47c0.23-0.11,0.55-0.21,0.98-0.29c0.58-0.11,0.98-0.21,1.2-0.3v-0.12c0-0.24-0.06-0.41-0.18-0.51
		c-0.12-0.1-0.34-0.15-0.66-0.15c-0.22,0-0.39,0.04-0.51,0.13C101.61,116.45,101.51,116.6,101.44,116.82z M103.09,117.82
		c-0.16,0.05-0.41,0.12-0.75,0.19c-0.34,0.07-0.57,0.15-0.67,0.22c-0.16,0.11-0.24,0.26-0.24,0.43c0,0.17,0.06,0.32,0.19,0.45
		s0.29,0.19,0.49,0.19c0.22,0,0.43-0.07,0.64-0.22c0.15-0.11,0.25-0.25,0.29-0.41c0.03-0.11,0.05-0.31,0.05-0.6V117.82z"/>
	<path d="M105.41,120.37l1.41,0.17c0.02,0.16,0.08,0.28,0.16,0.34c0.12,0.09,0.3,0.13,0.55,0.13c0.32,0,0.56-0.05,0.72-0.14
		c0.11-0.07,0.19-0.17,0.25-0.31c0.04-0.1,0.06-0.29,0.06-0.57v-0.68c-0.37,0.5-0.83,0.76-1.4,0.76c-0.63,0-1.12-0.26-1.49-0.79
		c-0.29-0.42-0.43-0.94-0.43-1.56c0-0.78,0.19-1.38,0.56-1.79c0.38-0.41,0.84-0.62,1.4-0.62c0.58,0,1.05,0.25,1.43,0.76v-0.66h1.16
		v4.19c0,0.55-0.04,0.96-0.14,1.23s-0.22,0.49-0.38,0.64s-0.38,0.28-0.66,0.36c-0.27,0.09-0.62,0.13-1.04,0.13
		c-0.79,0-1.35-0.14-1.68-0.41c-0.33-0.27-0.5-0.61-0.5-1.03C105.4,120.47,105.4,120.42,105.41,120.37z M106.51,117.63
		c0,0.5,0.1,0.86,0.29,1.09c0.19,0.23,0.43,0.34,0.71,0.34c0.3,0,0.56-0.12,0.76-0.35c0.21-0.24,0.31-0.58,0.31-1.05
		c0-0.48-0.1-0.84-0.3-1.08c-0.2-0.23-0.45-0.35-0.76-0.35c-0.3,0-0.54,0.12-0.73,0.35C106.61,116.81,106.51,117.16,106.51,117.63z"
		/>
	<path d="M114.09,120.06v-0.7c-0.17,0.25-0.39,0.45-0.67,0.59c-0.28,0.14-0.57,0.21-0.88,0.21c-0.31,0-0.59-0.07-0.84-0.21
		c-0.25-0.14-0.43-0.33-0.54-0.58c-0.11-0.25-0.17-0.59-0.17-1.03v-2.95h1.24v2.14c0,0.66,0.02,1.06,0.07,1.21
		c0.04,0.15,0.13,0.27,0.25,0.35c0.12,0.09,0.27,0.13,0.46,0.13c0.21,0,0.4-0.06,0.57-0.17c0.17-0.12,0.28-0.26,0.34-0.43
		c0.06-0.17,0.09-0.59,0.09-1.26v-1.97h1.23v4.67H114.09z"/>
	<path d="M120.76,120.06h-1.24v-2.38c0-0.5-0.03-0.83-0.08-0.98c-0.05-0.15-0.14-0.26-0.26-0.35c-0.12-0.08-0.26-0.12-0.43-0.12
		c-0.21,0-0.41,0.06-0.58,0.18c-0.17,0.12-0.29,0.27-0.35,0.47c-0.06,0.19-0.09,0.55-0.09,1.07v2.11h-1.23v-4.67h1.15v0.69
		c0.41-0.53,0.92-0.79,1.54-0.79c0.27,0,0.52,0.05,0.75,0.15c0.23,0.1,0.4,0.22,0.51,0.38c0.12,0.15,0.2,0.33,0.24,0.52
		c0.04,0.19,0.07,0.47,0.07,0.83V120.06z"/>
	<path d="M121.9,120.37l1.41,0.17c0.02,0.16,0.08,0.28,0.16,0.34c0.12,0.09,0.3,0.13,0.55,0.13c0.32,0,0.56-0.05,0.73-0.14
		c0.11-0.07,0.19-0.17,0.25-0.31c0.04-0.1,0.06-0.29,0.06-0.57v-0.68c-0.37,0.5-0.83,0.76-1.4,0.76c-0.63,0-1.12-0.26-1.49-0.79
		c-0.29-0.42-0.43-0.94-0.43-1.56c0-0.78,0.19-1.38,0.56-1.79c0.38-0.41,0.84-0.62,1.4-0.62c0.58,0,1.05,0.25,1.43,0.76v-0.66h1.16
		v4.19c0,0.55-0.05,0.96-0.14,1.23s-0.22,0.49-0.38,0.64s-0.38,0.28-0.66,0.36c-0.27,0.09-0.62,0.13-1.04,0.13
		c-0.79,0-1.35-0.14-1.68-0.41c-0.33-0.27-0.5-0.61-0.5-1.03C121.9,120.47,121.9,120.42,121.9,120.37z M123,117.63
		c0,0.5,0.1,0.86,0.29,1.09c0.19,0.23,0.43,0.34,0.71,0.34c0.3,0,0.56-0.12,0.76-0.35c0.21-0.24,0.31-0.58,0.31-1.05
		c0-0.48-0.1-0.84-0.3-1.08c-0.2-0.23-0.45-0.35-0.76-0.35c-0.3,0-0.54,0.12-0.73,0.35C123.1,116.81,123,117.16,123,117.63z"/>
	<path d="M127.75,116.63v-1.24h1.23v1.24H127.75z M127.75,120.06v-1.23h1.23v1.23H127.75z"/>
	<path d="M36.66,128.91v1.15h-4.33c0.05-0.43,0.19-0.84,0.42-1.23c0.23-0.39,0.7-0.9,1.39-1.54c0.56-0.52,0.9-0.87,1.02-1.05
		c0.17-0.25,0.25-0.51,0.25-0.76c0-0.28-0.07-0.49-0.22-0.63c-0.15-0.15-0.35-0.22-0.61-0.22c-0.26,0-0.46,0.08-0.62,0.23
		s-0.24,0.41-0.26,0.77l-1.23-0.12c0.07-0.68,0.3-1.17,0.69-1.46c0.39-0.29,0.87-0.44,1.45-0.44c0.64,0,1.14,0.17,1.5,0.51
		c0.36,0.34,0.54,0.77,0.54,1.28c0,0.29-0.05,0.57-0.16,0.83c-0.1,0.26-0.27,0.54-0.49,0.82c-0.15,0.19-0.42,0.46-0.81,0.82
		s-0.64,0.59-0.74,0.71c-0.1,0.12-0.19,0.23-0.25,0.34H36.66z"/>
	<path d="M38.55,126.58c-0.32-0.13-0.55-0.32-0.7-0.56c-0.15-0.24-0.22-0.49-0.22-0.78c0-0.48,0.17-0.88,0.5-1.19
		s0.81-0.47,1.43-0.47c0.61,0,1.09,0.16,1.43,0.47c0.34,0.31,0.51,0.71,0.51,1.19c0,0.3-0.08,0.56-0.23,0.8
		c-0.16,0.23-0.37,0.41-0.65,0.53c0.36,0.14,0.63,0.35,0.82,0.63c0.19,0.28,0.28,0.59,0.28,0.95c0,0.6-0.19,1.08-0.57,1.45
		c-0.38,0.37-0.88,0.56-1.51,0.56c-0.59,0-1.07-0.15-1.46-0.46c-0.46-0.36-0.69-0.86-0.69-1.49c0-0.35,0.09-0.67,0.26-0.96
		C37.91,126.97,38.18,126.74,38.55,126.58z M38.69,128.1c0,0.34,0.09,0.61,0.26,0.8c0.17,0.19,0.39,0.29,0.65,0.29
		c0.25,0,0.47-0.09,0.63-0.27c0.17-0.18,0.25-0.45,0.25-0.79c0-0.3-0.08-0.54-0.25-0.73c-0.17-0.18-0.39-0.28-0.65-0.28
		c-0.3,0-0.53,0.1-0.67,0.31S38.69,127.86,38.69,128.1z M38.81,125.34c0,0.25,0.07,0.44,0.21,0.58c0.14,0.14,0.32,0.21,0.56,0.21
		c0.23,0,0.42-0.07,0.56-0.21c0.14-0.14,0.21-0.33,0.21-0.58c0-0.23-0.07-0.42-0.21-0.56c-0.14-0.14-0.32-0.21-0.55-0.21
		c-0.24,0-0.43,0.07-0.57,0.21S38.81,125.11,38.81,125.34z"/>
	<path d="M42.46,128.35l1.2-0.15c0.04,0.3,0.14,0.54,0.31,0.7c0.17,0.16,0.37,0.24,0.61,0.24c0.25,0,0.47-0.1,0.64-0.29
		c0.17-0.19,0.26-0.45,0.26-0.78c0-0.31-0.08-0.56-0.25-0.74s-0.37-0.27-0.61-0.27c-0.16,0-0.35,0.03-0.57,0.09l0.14-1.01
		c0.33,0.01,0.59-0.06,0.76-0.22c0.18-0.15,0.26-0.36,0.26-0.61c0-0.22-0.06-0.39-0.19-0.52s-0.3-0.19-0.51-0.19
		c-0.21,0-0.39,0.07-0.54,0.22c-0.15,0.15-0.24,0.36-0.27,0.64l-1.14-0.19c0.08-0.39,0.2-0.7,0.36-0.93
		c0.16-0.23,0.38-0.42,0.67-0.55c0.29-0.13,0.61-0.2,0.96-0.2c0.61,0,1.09,0.19,1.46,0.58c0.3,0.32,0.45,0.67,0.45,1.07
		c0,0.57-0.31,1.02-0.93,1.35c0.37,0.08,0.66,0.26,0.89,0.53c0.22,0.28,0.33,0.61,0.33,1c0,0.57-0.21,1.05-0.62,1.45
		c-0.41,0.4-0.93,0.6-1.54,0.6c-0.58,0-1.07-0.17-1.45-0.5C42.74,129.33,42.52,128.89,42.46,128.35z"/>
	<path d="M49.95,127.96l1.27-0.12c0.08,0.42,0.23,0.74,0.46,0.94c0.23,0.2,0.55,0.3,0.94,0.3c0.42,0,0.73-0.09,0.95-0.27
		c0.21-0.18,0.32-0.38,0.32-0.62c0-0.15-0.04-0.28-0.13-0.39c-0.09-0.11-0.25-0.2-0.47-0.28c-0.15-0.05-0.5-0.15-1.04-0.28
		c-0.7-0.17-1.19-0.38-1.47-0.64c-0.4-0.35-0.59-0.79-0.59-1.3c0-0.33,0.09-0.63,0.28-0.92c0.19-0.29,0.45-0.5,0.8-0.65
		c0.35-0.15,0.77-0.22,1.27-0.22c0.81,0,1.42,0.18,1.83,0.53c0.41,0.35,0.62,0.83,0.64,1.42l-1.3,0.06
		c-0.06-0.33-0.18-0.57-0.36-0.71c-0.18-0.15-0.46-0.22-0.82-0.22c-0.38,0-0.67,0.08-0.89,0.23c-0.14,0.1-0.21,0.23-0.21,0.4
		c0,0.15,0.06,0.28,0.19,0.39c0.16,0.14,0.56,0.28,1.2,0.43c0.63,0.15,1.1,0.3,1.4,0.46c0.3,0.16,0.54,0.38,0.71,0.66
		c0.17,0.28,0.26,0.62,0.26,1.03c0,0.37-0.1,0.72-0.31,1.04c-0.21,0.32-0.5,0.56-0.87,0.72c-0.38,0.16-0.84,0.24-1.4,0.24
		c-0.81,0-1.44-0.19-1.88-0.56C50.29,129.23,50.03,128.68,49.95,127.96z"/>
	<path d="M55.99,127.66c0-0.41,0.1-0.81,0.3-1.19s0.49-0.68,0.86-0.88c0.37-0.2,0.78-0.3,1.24-0.3c0.71,0,1.28,0.23,1.74,0.69
		c0.45,0.46,0.68,1.04,0.68,1.74c0,0.71-0.23,1.29-0.68,1.76c-0.46,0.46-1.03,0.7-1.72,0.7c-0.43,0-0.84-0.1-1.22-0.29
		s-0.68-0.48-0.89-0.85C56.09,128.65,55.99,128.2,55.99,127.66z M57.25,127.72c0,0.46,0.11,0.82,0.33,1.06s0.49,0.37,0.81,0.37
		s0.59-0.12,0.81-0.37s0.33-0.6,0.33-1.07c0-0.46-0.11-0.81-0.33-1.05s-0.49-0.37-0.81-0.37s-0.59,0.12-0.81,0.37
		S57.25,127.26,57.25,127.72z"/>
	<path d="M61.23,125.39h0.69v-0.35c0-0.39,0.04-0.69,0.12-0.88c0.08-0.19,0.24-0.35,0.46-0.47c0.22-0.12,0.51-0.18,0.85-0.18
		c0.35,0,0.7,0.05,1.03,0.16l-0.17,0.86c-0.2-0.05-0.39-0.07-0.57-0.07c-0.18,0-0.31,0.04-0.38,0.13c-0.08,0.08-0.12,0.24-0.12,0.48
		v0.33h0.92v0.97h-0.92v3.7h-1.23v-3.7h-0.69V125.39z"/>
	<path d="M66.91,125.39v0.98h-0.84v1.88c0,0.38,0.01,0.6,0.02,0.67c0.02,0.06,0.05,0.12,0.11,0.16c0.06,0.04,0.13,0.06,0.21,0.06
		c0.11,0,0.28-0.04,0.5-0.12l0.11,0.96c-0.29,0.12-0.61,0.18-0.98,0.18c-0.22,0-0.42-0.04-0.6-0.11c-0.18-0.07-0.31-0.17-0.39-0.29
		c-0.08-0.12-0.14-0.28-0.17-0.48c-0.03-0.14-0.04-0.43-0.04-0.87v-2.03h-0.57v-0.98h0.57v-0.93l1.24-0.72v1.65H66.91z"/>
	<path d="M68.63,130.06l-1.48-4.67h1.2l0.87,3.06l0.8-3.06h1.19l0.78,3.06l0.89-3.06h1.22l-1.5,4.67h-1.19l-0.8-3l-0.79,3H68.63z"/>
	<path d="M75.69,126.82l-1.12-0.2c0.13-0.45,0.34-0.79,0.65-1s0.76-0.33,1.37-0.33c0.55,0,0.96,0.07,1.23,0.2
		c0.27,0.13,0.46,0.3,0.57,0.5c0.11,0.2,0.16,0.57,0.16,1.11l-0.01,1.44c0,0.41,0.02,0.71,0.06,0.91c0.04,0.19,0.11,0.4,0.22,0.63
		H77.6c-0.03-0.08-0.07-0.2-0.12-0.37c-0.02-0.07-0.04-0.12-0.04-0.14c-0.21,0.21-0.44,0.36-0.68,0.46c-0.24,0.1-0.5,0.15-0.77,0.15
		c-0.48,0-0.86-0.13-1.14-0.39c-0.28-0.26-0.42-0.59-0.42-0.99c0-0.26,0.06-0.5,0.19-0.71c0.13-0.21,0.3-0.37,0.53-0.47
		c0.23-0.11,0.55-0.21,0.98-0.29c0.58-0.11,0.98-0.21,1.2-0.3v-0.12c0-0.24-0.06-0.41-0.18-0.51c-0.12-0.1-0.34-0.15-0.66-0.15
		c-0.22,0-0.39,0.04-0.51,0.13C75.86,126.45,75.76,126.6,75.69,126.82z M77.34,127.82c-0.16,0.05-0.41,0.12-0.75,0.19
		c-0.34,0.07-0.57,0.15-0.67,0.22c-0.16,0.11-0.24,0.26-0.24,0.43c0,0.17,0.06,0.32,0.19,0.45s0.29,0.19,0.49,0.19
		c0.22,0,0.44-0.07,0.64-0.22c0.15-0.11,0.25-0.25,0.29-0.41c0.03-0.11,0.05-0.31,0.05-0.6V127.82z"/>
	<path d="M80.95,130.06h-1.23v-4.67h1.15v0.66c0.2-0.31,0.37-0.52,0.53-0.62s0.33-0.15,0.53-0.15c0.28,0,0.55,0.08,0.81,0.23
		l-0.38,1.08c-0.21-0.13-0.4-0.2-0.58-0.2c-0.17,0-0.32,0.05-0.44,0.14c-0.12,0.1-0.21,0.27-0.28,0.52c-0.07,0.25-0.1,0.77-0.1,1.56
		V130.06z"/>
	<path d="M85.97,128.57l1.23,0.21c-0.16,0.45-0.41,0.79-0.75,1.03c-0.34,0.24-0.77,0.35-1.28,0.35c-0.81,0-1.41-0.26-1.8-0.79
		c-0.31-0.42-0.46-0.96-0.46-1.61c0-0.77,0.2-1.38,0.61-1.82c0.4-0.44,0.92-0.66,1.53-0.66c0.69,0,1.24,0.23,1.64,0.69
		c0.4,0.46,0.59,1.16,0.58,2.11h-3.09c0.01,0.37,0.11,0.65,0.3,0.85c0.19,0.2,0.43,0.31,0.71,0.31c0.19,0,0.36-0.05,0.49-0.16
		S85.91,128.81,85.97,128.57z M86.04,127.33c-0.01-0.36-0.1-0.63-0.28-0.82c-0.18-0.19-0.39-0.28-0.64-0.28
		c-0.27,0-0.49,0.1-0.67,0.29s-0.26,0.46-0.26,0.8H86.04z"/>
	<path d="M88.14,128.34v-1.23h2.43v1.23H88.14z"/>
	<path d="M97.09,130.06h-1.42l-0.56-1.46h-2.58l-0.53,1.46h-1.38l2.51-6.44h1.38L97.09,130.06z M94.7,127.51l-0.89-2.39l-0.87,2.39
		H94.7z"/>
	<path d="M102.02,130.06h-1.23v-2.38c0-0.5-0.03-0.83-0.08-0.98c-0.05-0.15-0.14-0.26-0.26-0.35c-0.12-0.08-0.26-0.12-0.43-0.12
		c-0.21,0-0.41,0.06-0.58,0.18c-0.17,0.12-0.29,0.27-0.35,0.47c-0.06,0.19-0.09,0.55-0.09,1.07v2.11h-1.24v-4.67h1.15v0.69
		c0.41-0.53,0.92-0.79,1.54-0.79c0.27,0,0.52,0.05,0.75,0.15c0.23,0.1,0.4,0.22,0.51,0.38c0.12,0.15,0.2,0.33,0.24,0.52
		c0.04,0.19,0.07,0.47,0.07,0.83V130.06z"/>
	<path d="M104.14,130.06l-1.48-4.67h1.2l0.88,3.06l0.8-3.06h1.19l0.78,3.06l0.89-3.06h1.22l-1.5,4.67h-1.19l-0.8-3l-0.79,3H104.14z"
		/>
	<path d="M112.97,128.57l1.23,0.21c-0.16,0.45-0.41,0.79-0.75,1.03c-0.34,0.24-0.77,0.35-1.28,0.35c-0.81,0-1.41-0.26-1.8-0.79
		c-0.31-0.42-0.46-0.96-0.46-1.61c0-0.77,0.2-1.38,0.61-1.82c0.4-0.44,0.92-0.66,1.53-0.66c0.69,0,1.24,0.23,1.64,0.69
		c0.4,0.46,0.59,1.16,0.58,2.11h-3.09c0.01,0.37,0.11,0.65,0.3,0.85c0.19,0.2,0.43,0.31,0.71,0.31c0.19,0,0.36-0.05,0.49-0.16
		S112.91,128.81,112.97,128.57z M113.04,127.33c-0.01-0.36-0.1-0.63-0.28-0.82c-0.18-0.19-0.39-0.28-0.64-0.28
		c-0.27,0-0.49,0.1-0.67,0.29s-0.26,0.46-0.26,0.8H113.04z"/>
	<path d="M119.52,130.06h-1.24v-2.38c0-0.5-0.03-0.83-0.08-0.98c-0.05-0.15-0.14-0.26-0.26-0.35c-0.12-0.08-0.26-0.12-0.43-0.12
		c-0.21,0-0.41,0.06-0.58,0.18c-0.17,0.12-0.29,0.27-0.35,0.47c-0.06,0.19-0.09,0.55-0.09,1.07v2.11h-1.23v-4.67h1.15v0.69
		c0.41-0.53,0.92-0.79,1.54-0.79c0.27,0,0.52,0.05,0.75,0.15c0.23,0.1,0.4,0.22,0.51,0.38c0.12,0.15,0.2,0.33,0.24,0.52
		c0.04,0.19,0.07,0.47,0.07,0.83V130.06z"/>
	<path d="M125.05,130.06h-1.15v-0.69c-0.19,0.27-0.42,0.46-0.67,0.6c-0.26,0.13-0.52,0.2-0.78,0.2c-0.54,0-1-0.22-1.38-0.65
		c-0.38-0.43-0.57-1.04-0.57-1.81c0-0.79,0.19-1.39,0.56-1.8c0.37-0.41,0.84-0.62,1.41-0.62c0.52,0,0.97,0.22,1.35,0.65v-2.32h1.23
		V130.06z M121.76,127.62c0,0.5,0.07,0.86,0.21,1.08c0.2,0.32,0.48,0.48,0.83,0.48c0.28,0,0.53-0.12,0.72-0.36
		c0.2-0.24,0.3-0.6,0.3-1.08c0-0.54-0.1-0.92-0.29-1.16c-0.19-0.24-0.44-0.35-0.74-0.35c-0.29,0-0.54,0.12-0.74,0.35
		C121.86,126.81,121.76,127.16,121.76,127.62z"/>
	<path d="M129.34,130.06v-0.7c-0.17,0.25-0.39,0.45-0.67,0.59c-0.28,0.14-0.57,0.21-0.88,0.21c-0.31,0-0.59-0.07-0.84-0.21
		c-0.25-0.14-0.43-0.33-0.54-0.58c-0.11-0.25-0.17-0.59-0.17-1.03v-2.95h1.23v2.14c0,0.66,0.02,1.06,0.07,1.21
		c0.04,0.15,0.13,0.27,0.25,0.35c0.12,0.09,0.27,0.13,0.46,0.13c0.21,0,0.4-0.06,0.57-0.17c0.17-0.12,0.28-0.26,0.34-0.43
		c0.06-0.17,0.09-0.59,0.09-1.26v-1.97h1.24v4.67H129.34z"/>
	<path d="M136.01,130.06h-1.23v-2.38c0-0.5-0.03-0.83-0.08-0.98c-0.05-0.15-0.14-0.26-0.26-0.35c-0.12-0.08-0.26-0.12-0.43-0.12
		c-0.21,0-0.41,0.06-0.58,0.18c-0.17,0.12-0.29,0.27-0.35,0.47c-0.06,0.19-0.09,0.55-0.09,1.07v2.11h-1.24v-4.67h1.15v0.69
		c0.41-0.53,0.92-0.79,1.54-0.79c0.27,0,0.52,0.05,0.75,0.15c0.23,0.1,0.4,0.22,0.51,0.38c0.12,0.15,0.2,0.33,0.24,0.52
		c0.04,0.19,0.07,0.47,0.07,0.83V130.06z"/>
	<path d="M137.15,130.37l1.41,0.17c0.02,0.16,0.08,0.28,0.16,0.34c0.12,0.09,0.3,0.13,0.55,0.13c0.32,0,0.56-0.05,0.72-0.14
		c0.11-0.07,0.19-0.17,0.25-0.31c0.04-0.1,0.06-0.29,0.06-0.57v-0.68c-0.37,0.5-0.83,0.76-1.4,0.76c-0.63,0-1.12-0.26-1.49-0.79
		c-0.29-0.42-0.43-0.94-0.43-1.56c0-0.78,0.19-1.38,0.56-1.79c0.38-0.41,0.84-0.62,1.4-0.62c0.58,0,1.05,0.25,1.43,0.76v-0.66h1.16
		v4.19c0,0.55-0.04,0.96-0.14,1.23s-0.22,0.49-0.38,0.64s-0.38,0.28-0.66,0.36c-0.27,0.09-0.62,0.13-1.04,0.13
		c-0.79,0-1.35-0.14-1.68-0.41c-0.33-0.27-0.5-0.61-0.5-1.03C137.15,130.47,137.15,130.42,137.15,130.37z M138.26,127.63
		c0,0.5,0.1,0.86,0.29,1.09c0.19,0.23,0.43,0.34,0.71,0.34c0.3,0,0.56-0.12,0.76-0.35c0.21-0.24,0.31-0.58,0.31-1.05
		c0-0.48-0.1-0.84-0.3-1.08c-0.2-0.23-0.45-0.35-0.76-0.35c-0.3,0-0.54,0.12-0.73,0.35C138.35,126.81,138.26,127.16,138.26,127.63z"
		/>
	<path d="M145.47,128.57l1.23,0.21c-0.16,0.45-0.41,0.79-0.75,1.03c-0.34,0.24-0.77,0.35-1.28,0.35c-0.81,0-1.41-0.26-1.8-0.79
		c-0.31-0.42-0.46-0.96-0.46-1.61c0-0.77,0.2-1.38,0.61-1.82c0.4-0.44,0.92-0.66,1.53-0.66c0.69,0,1.24,0.23,1.64,0.69
		c0.4,0.46,0.59,1.16,0.58,2.11h-3.09c0.01,0.37,0.11,0.65,0.3,0.85c0.19,0.2,0.43,0.31,0.71,0.31c0.19,0,0.36-0.05,0.49-0.16
		S145.4,128.81,145.47,128.57z M145.54,127.33c-0.01-0.36-0.1-0.63-0.28-0.82c-0.18-0.19-0.39-0.28-0.64-0.28
		c-0.27,0-0.49,0.1-0.67,0.29s-0.26,0.46-0.26,0.8H145.54z"/>
	<path d="M152.02,130.06h-1.24v-2.38c0-0.5-0.03-0.83-0.08-0.98c-0.05-0.15-0.14-0.26-0.26-0.35c-0.12-0.08-0.26-0.12-0.43-0.12
		c-0.21,0-0.41,0.06-0.58,0.18c-0.17,0.12-0.29,0.27-0.35,0.47c-0.06,0.19-0.09,0.55-0.09,1.07v2.11h-1.23v-4.67h1.15v0.69
		c0.41-0.53,0.92-0.79,1.54-0.79c0.27,0,0.52,0.05,0.75,0.15c0.23,0.1,0.4,0.22,0.51,0.38c0.12,0.15,0.2,0.33,0.24,0.52
		c0.04,0.19,0.07,0.47,0.07,0.83V130.06z"/>
</g>
<g>
	<path d="M59.76,141.15v-6.44h1.27l2.64,4.3v-4.3h1.21v6.44h-1.31l-2.6-4.2v4.2H59.76z"/>
	<path d="M65.96,138.75c0-0.41,0.1-0.81,0.3-1.19s0.49-0.68,0.86-0.88c0.37-0.2,0.78-0.3,1.24-0.3c0.71,0,1.28,0.23,1.74,0.69
		c0.45,0.46,0.68,1.04,0.68,1.74c0,0.71-0.23,1.29-0.68,1.76c-0.46,0.46-1.03,0.7-1.72,0.7c-0.43,0-0.84-0.1-1.22-0.29
		s-0.68-0.48-0.89-0.85C66.06,139.74,65.96,139.29,65.96,138.75z M67.22,138.82c0,0.46,0.11,0.82,0.33,1.06s0.49,0.37,0.81,0.37
		s0.59-0.12,0.81-0.37s0.33-0.6,0.33-1.07c0-0.46-0.11-0.81-0.33-1.05s-0.49-0.37-0.81-0.37s-0.59,0.12-0.81,0.37
		S67.22,138.35,67.22,138.82z"/>
	<path d="M73.02,141.15l-1.88-4.67h1.3l0.88,2.38l0.25,0.79c0.07-0.2,0.11-0.33,0.13-0.4c0.04-0.13,0.08-0.26,0.13-0.4l0.89-2.38
		h1.27l-1.85,4.67H73.02z"/>
	<path d="M79.45,139.67l1.23,0.21c-0.16,0.45-0.41,0.79-0.75,1.03c-0.34,0.24-0.77,0.35-1.28,0.35c-0.81,0-1.41-0.26-1.8-0.79
		c-0.31-0.42-0.46-0.96-0.46-1.61c0-0.77,0.2-1.38,0.61-1.82c0.4-0.44,0.92-0.66,1.53-0.66c0.69,0,1.24,0.23,1.64,0.69
		c0.4,0.46,0.59,1.16,0.58,2.11h-3.09c0.01,0.37,0.11,0.65,0.3,0.85c0.19,0.2,0.43,0.31,0.71,0.31c0.19,0,0.36-0.05,0.49-0.16
		S79.38,139.9,79.45,139.67z M79.52,138.42c-0.01-0.36-0.1-0.63-0.28-0.82c-0.18-0.19-0.39-0.28-0.64-0.28
		c-0.27,0-0.49,0.1-0.67,0.29s-0.26,0.46-0.26,0.8H79.52z"/>
	<path d="M81.66,136.48h1.14v0.64c0.41-0.5,0.89-0.74,1.45-0.74c0.3,0,0.56,0.06,0.78,0.18s0.4,0.31,0.54,0.56
		c0.21-0.25,0.43-0.44,0.66-0.56s0.49-0.18,0.76-0.18c0.34,0,0.63,0.07,0.87,0.21c0.24,0.14,0.41,0.34,0.53,0.61
		c0.08,0.2,0.13,0.52,0.13,0.97v2.98h-1.23v-2.67c0-0.46-0.04-0.76-0.13-0.9c-0.11-0.18-0.29-0.26-0.53-0.26
		c-0.17,0-0.34,0.05-0.49,0.16s-0.26,0.26-0.33,0.46c-0.07,0.2-0.1,0.53-0.1,0.96v2.24h-1.23v-2.56c0-0.45-0.02-0.75-0.07-0.88
		s-0.11-0.23-0.2-0.29c-0.09-0.06-0.22-0.1-0.38-0.1c-0.19,0-0.36,0.05-0.51,0.15s-0.26,0.25-0.33,0.44
		c-0.07,0.19-0.1,0.51-0.1,0.96v2.27h-1.23V136.48z"/>
	<path d="M89.7,141.15v-6.44h1.23v2.32c0.38-0.43,0.83-0.65,1.35-0.65c0.57,0,1.04,0.21,1.41,0.62c0.37,0.41,0.56,1,0.56,1.77
		c0,0.8-0.19,1.41-0.57,1.84c-0.38,0.43-0.84,0.65-1.38,0.65c-0.27,0-0.53-0.07-0.79-0.2c-0.26-0.13-0.48-0.33-0.67-0.59v0.69H89.7z
		 M90.93,138.72c0,0.48,0.08,0.84,0.23,1.07c0.21,0.33,0.5,0.49,0.85,0.49c0.27,0,0.5-0.12,0.7-0.35c0.19-0.23,0.29-0.6,0.29-1.1
		c0-0.53-0.1-0.92-0.29-1.15c-0.19-0.24-0.44-0.35-0.74-0.35c-0.3,0-0.54,0.12-0.74,0.35C91.02,137.9,90.93,138.25,90.93,138.72z"/>
	<path d="M97.95,139.67l1.23,0.21c-0.16,0.45-0.41,0.79-0.75,1.03c-0.34,0.24-0.77,0.35-1.28,0.35c-0.81,0-1.41-0.26-1.8-0.79
		c-0.31-0.42-0.46-0.96-0.46-1.61c0-0.77,0.2-1.38,0.61-1.82c0.4-0.44,0.92-0.66,1.53-0.66c0.69,0,1.24,0.23,1.64,0.69
		c0.4,0.46,0.59,1.16,0.58,2.11h-3.09c0.01,0.37,0.11,0.65,0.3,0.85c0.19,0.2,0.43,0.31,0.71,0.31c0.19,0,0.36-0.05,0.49-0.16
		S97.88,139.9,97.95,139.67z M98.02,138.42c-0.01-0.36-0.1-0.63-0.28-0.82c-0.18-0.19-0.39-0.28-0.64-0.28
		c-0.27,0-0.49,0.1-0.67,0.29s-0.26,0.46-0.26,0.8H98.02z"/>
	<path d="M101.44,141.15h-1.23v-4.67h1.15v0.66c0.2-0.31,0.37-0.52,0.53-0.62c0.16-0.1,0.33-0.15,0.53-0.15
		c0.28,0,0.55,0.08,0.81,0.23l-0.38,1.08c-0.21-0.13-0.4-0.2-0.58-0.2c-0.17,0-0.32,0.05-0.44,0.14c-0.12,0.1-0.21,0.27-0.28,0.52
		c-0.07,0.25-0.1,0.77-0.1,1.56V141.15z"/>
	<path d="M110.16,140v1.15h-4.33c0.05-0.43,0.19-0.84,0.42-1.23c0.23-0.39,0.7-0.9,1.39-1.54c0.56-0.52,0.9-0.87,1.02-1.05
		c0.17-0.25,0.25-0.51,0.25-0.76c0-0.28-0.07-0.49-0.22-0.63c-0.15-0.15-0.35-0.22-0.61-0.22c-0.26,0-0.46,0.08-0.62,0.23
		s-0.24,0.41-0.26,0.77l-1.23-0.12c0.07-0.68,0.3-1.17,0.69-1.46c0.39-0.29,0.87-0.44,1.45-0.44c0.64,0,1.13,0.17,1.5,0.51
		c0.36,0.34,0.54,0.77,0.54,1.28c0,0.29-0.05,0.57-0.16,0.83c-0.1,0.26-0.27,0.54-0.49,0.82c-0.15,0.19-0.42,0.46-0.81,0.82
		s-0.64,0.59-0.74,0.71c-0.1,0.12-0.19,0.23-0.25,0.34H110.16z"/>
	<path d="M113.09,134.68c0.62,0,1.11,0.22,1.46,0.67c0.42,0.53,0.63,1.4,0.63,2.62c0,1.22-0.21,2.1-0.63,2.63
		c-0.35,0.44-0.83,0.66-1.46,0.66c-0.63,0-1.13-0.24-1.52-0.72c-0.38-0.48-0.58-1.34-0.58-2.58c0-1.21,0.21-2.09,0.63-2.62
		C111.98,134.9,112.46,134.68,113.09,134.68z M113.09,135.71c-0.15,0-0.28,0.05-0.4,0.14c-0.12,0.09-0.21,0.27-0.27,0.51
		c-0.08,0.32-0.13,0.86-0.13,1.61s0.04,1.28,0.11,1.56c0.08,0.28,0.17,0.47,0.29,0.56c0.12,0.09,0.25,0.14,0.4,0.14
		s0.28-0.05,0.4-0.14c0.12-0.1,0.21-0.27,0.27-0.51c0.08-0.32,0.13-0.85,0.13-1.61s-0.04-1.27-0.11-1.56
		c-0.08-0.28-0.17-0.47-0.29-0.57C113.37,135.75,113.24,135.71,113.09,135.71z"/>
	<path d="M120.17,140v1.15h-4.33c0.05-0.43,0.19-0.84,0.42-1.23c0.23-0.39,0.7-0.9,1.39-1.54c0.56-0.52,0.9-0.87,1.02-1.05
		c0.17-0.25,0.25-0.51,0.25-0.76c0-0.28-0.07-0.49-0.22-0.63c-0.15-0.15-0.35-0.22-0.61-0.22c-0.26,0-0.46,0.08-0.62,0.23
		s-0.24,0.41-0.26,0.77l-1.23-0.12c0.07-0.68,0.3-1.17,0.69-1.46c0.39-0.29,0.87-0.44,1.45-0.44c0.64,0,1.13,0.17,1.5,0.51
		c0.36,0.34,0.54,0.77,0.54,1.28c0,0.29-0.05,0.57-0.16,0.83c-0.1,0.26-0.27,0.54-0.49,0.82c-0.15,0.19-0.42,0.46-0.81,0.82
		s-0.64,0.59-0.74,0.71c-0.1,0.12-0.19,0.23-0.25,0.34H120.17z"/>
	<path d="M123.43,141.15v-1.3h-2.64v-1.08l2.79-4.09h1.04v4.09h0.8v1.08h-0.8v1.3H123.43z M123.43,138.77v-2.2l-1.48,2.2H123.43z"/>
</g>
<g>
	<defs>
		<rect id="SVGID_00000084518746330202909370000007013853289508240312_" x="17.18" y="174.06" width="156.68" height="30.58"/>
	</defs>
	<clipPath id="SVGID_00000176739644486810865200000012237742275598709396_">
		<use xlink:href="#SVGID_00000084518746330202909370000007013853289508240312_"  style="overflow:visible;"/>
	</clipPath>
	<path style="clip-path:url(#SVGID_00000176739644486810865200000012237742275598709396_);fill:#E3000F;" d="M72.93,192.79l1.79-7.4
		H73.7l-1.77,7.4H72.93z M67.32,189.64c0-0.37,0.09-0.67,0.29-0.89c0.2-0.22,0.44-0.33,0.74-0.33c0.28,0,0.52,0.1,0.71,0.31
		c0.19,0.21,0.3,0.51,0.31,0.91H67.32z M68.96,191.59c-0.15,0.12-0.33,0.18-0.54,0.18c-0.32,0-0.58-0.11-0.79-0.34
		c-0.21-0.23-0.32-0.54-0.33-0.95h3.44c0.02-1.05-0.19-1.83-0.64-2.34c-0.45-0.51-1.05-0.76-1.83-0.76c-0.69,0-1.25,0.24-1.7,0.73
		c-0.45,0.49-0.67,1.16-0.67,2.02c0,0.72,0.17,1.32,0.51,1.79c0.43,0.59,1.1,0.88,2,0.88c0.57,0,1.04-0.13,1.42-0.39
		c0.38-0.26,0.66-0.64,0.83-1.14l-1.37-0.23C69.22,191.28,69.11,191.47,68.96,191.59 M61.61,188.81c0.22-0.26,0.49-0.39,0.82-0.39
		c0.33,0,0.61,0.13,0.83,0.39c0.22,0.26,0.32,0.69,0.32,1.29c0,0.53-0.11,0.93-0.33,1.2c-0.22,0.27-0.49,0.4-0.81,0.4
		c-0.4,0-0.71-0.18-0.93-0.54c-0.15-0.25-0.23-0.65-0.23-1.2C61.28,189.45,61.39,189.07,61.61,188.81 M64.94,185.51h-1.37v2.58
		c-0.42-0.48-0.92-0.72-1.5-0.72c-0.63,0-1.15,0.23-1.57,0.69c-0.41,0.46-0.62,1.13-0.62,2c0,0.86,0.21,1.53,0.64,2.01
		c0.43,0.48,0.94,0.72,1.53,0.72c0.29,0,0.58-0.07,0.87-0.22s0.54-0.37,0.75-0.66v0.76h1.28V185.51z M58.78,191.3h-1.37v1.37h1.37
		V191.3z M52.95,188.84c0.22-0.26,0.5-0.39,0.84-0.39c0.32,0,0.59,0.13,0.81,0.4c0.22,0.26,0.33,0.67,0.33,1.21
		c0,0.58-0.11,1-0.32,1.26c-0.21,0.26-0.48,0.38-0.8,0.38c-0.33,0-0.61-0.14-0.84-0.42c-0.23-0.28-0.35-0.71-0.35-1.29
		C52.62,189.48,52.73,189.1,52.95,188.84 M51.26,194.65h1.37v-2.61c0.26,0.28,0.5,0.47,0.74,0.59c0.23,0.11,0.49,0.17,0.78,0.17
		c0.6,0,1.11-0.24,1.54-0.72s0.63-1.15,0.63-2.02c0-0.84-0.21-1.5-0.63-1.97c-0.42-0.47-0.93-0.71-1.53-0.71
		c-0.35,0-0.66,0.08-0.94,0.24c-0.28,0.16-0.51,0.38-0.67,0.63v-0.76h-1.28V194.65z M49.89,187.49h-1.37v5.19h1.37V187.49z
		 M49.89,185.51h-1.37v1.27h1.37V185.51z M42.41,185.51v7.16h1.37v-2.6c0-0.44,0.04-0.76,0.12-0.99c0.08-0.22,0.21-0.39,0.39-0.5
		c0.18-0.11,0.38-0.17,0.61-0.17c0.2,0,0.36,0.04,0.5,0.13c0.13,0.09,0.22,0.2,0.28,0.35c0.05,0.15,0.08,0.49,0.08,1.03v2.74h1.37
		v-3.04c0-0.46-0.02-0.81-0.07-1.03c-0.05-0.22-0.13-0.42-0.26-0.61c-0.13-0.18-0.32-0.33-0.57-0.45c-0.25-0.12-0.54-0.18-0.85-0.18
		c-0.61,0-1.14,0.26-1.59,0.78v-2.63H42.41z M40.57,187.78c-0.37-0.27-0.88-0.41-1.51-0.41c-0.77,0-1.38,0.24-1.84,0.72
		c-0.45,0.48-0.68,1.14-0.68,2c0,0.85,0.22,1.51,0.68,1.99c0.45,0.48,1.06,0.72,1.81,0.72c0.67,0,1.2-0.16,1.6-0.47
		c0.4-0.32,0.67-0.78,0.81-1.4l-1.35-0.23c-0.07,0.36-0.19,0.62-0.35,0.76c-0.17,0.15-0.38,0.22-0.64,0.22
		c-0.35,0-0.63-0.13-0.83-0.38c-0.21-0.25-0.31-0.69-0.31-1.3c0-0.55,0.1-0.95,0.31-1.18c0.2-0.24,0.48-0.35,0.82-0.35
		c0.26,0,0.47,0.07,0.63,0.21c0.16,0.14,0.26,0.34,0.31,0.61l1.35-0.24C41.21,188.46,40.94,188.05,40.57,187.78"/>
</g>
<g>
	<path d="M75.65,192.67v-7.16h1.37v7.16H75.65z"/>
	<path d="M81.43,191.02l1.37,0.23c-0.18,0.5-0.45,0.88-0.83,1.15c-0.38,0.26-0.85,0.39-1.42,0.39c-0.9,0-1.57-0.29-2-0.88
		c-0.34-0.47-0.51-1.07-0.51-1.79c0-0.86,0.22-1.53,0.67-2.02c0.45-0.49,1.02-0.73,1.7-0.73c0.77,0,1.38,0.25,1.83,0.76
		c0.45,0.51,0.66,1.29,0.64,2.34h-3.44c0.01,0.41,0.12,0.72,0.33,0.95c0.21,0.23,0.48,0.34,0.79,0.34c0.21,0,0.4-0.06,0.54-0.18
		S81.36,191.28,81.43,191.02z M81.51,189.64c-0.01-0.4-0.11-0.7-0.31-0.91c-0.2-0.21-0.43-0.31-0.71-0.31
		c-0.3,0-0.55,0.11-0.74,0.33s-0.29,0.51-0.29,0.89H81.51z"/>
	<path d="M85.02,189.07l-1.25-0.22c0.14-0.5,0.38-0.87,0.72-1.11s0.85-0.36,1.52-0.36c0.61,0,1.07,0.07,1.37,0.22
		c0.3,0.15,0.51,0.33,0.63,0.55c0.12,0.22,0.18,0.63,0.18,1.23l-0.01,1.6c0,0.46,0.02,0.79,0.07,1.01c0.04,0.22,0.13,0.45,0.25,0.7
		h-1.36c-0.04-0.09-0.08-0.23-0.13-0.41c-0.02-0.08-0.04-0.13-0.05-0.16c-0.23,0.23-0.48,0.4-0.75,0.51s-0.55,0.17-0.85,0.17
		c-0.53,0-0.95-0.14-1.26-0.43s-0.46-0.66-0.46-1.1c0-0.29,0.07-0.55,0.21-0.78c0.14-0.23,0.34-0.41,0.59-0.53
		c0.25-0.12,0.62-0.23,1.09-0.32c0.64-0.12,1.09-0.23,1.33-0.34v-0.14c0-0.26-0.06-0.45-0.2-0.56c-0.13-0.11-0.38-0.17-0.74-0.17
		c-0.24,0-0.43,0.05-0.57,0.14C85.21,188.66,85.1,188.83,85.02,189.07z M86.85,190.18c-0.18,0.06-0.45,0.13-0.83,0.21
		s-0.63,0.16-0.75,0.24c-0.18,0.13-0.27,0.29-0.27,0.48c0,0.19,0.07,0.36,0.21,0.5s0.33,0.21,0.55,0.21c0.25,0,0.48-0.08,0.71-0.24
		c0.17-0.12,0.27-0.28,0.33-0.45c0.04-0.12,0.05-0.34,0.05-0.67V190.18z"/>
	<path d="M94.31,192.67h-1.27v-0.76c-0.21,0.3-0.46,0.52-0.75,0.66c-0.29,0.14-0.58,0.22-0.87,0.22c-0.6,0-1.11-0.24-1.53-0.72
		c-0.42-0.48-0.64-1.15-0.64-2.01c0-0.88,0.21-1.55,0.62-2c0.41-0.46,0.94-0.69,1.57-0.69c0.58,0,1.08,0.24,1.5,0.72v-2.58h1.37
		V192.67z M90.65,189.97c0,0.55,0.08,0.95,0.23,1.2c0.22,0.36,0.53,0.54,0.93,0.54c0.32,0,0.58-0.13,0.81-0.4
		c0.22-0.27,0.33-0.67,0.33-1.2c0-0.6-0.11-1.02-0.32-1.29c-0.21-0.26-0.49-0.39-0.83-0.39c-0.33,0-0.6,0.13-0.82,0.39
		C90.76,189.07,90.65,189.45,90.65,189.97z"/>
	<path d="M95.66,186.78v-1.27h1.37v1.27H95.66z M95.66,192.67v-5.19h1.37v5.19H95.66z"/>
	<path d="M103.16,192.67h-1.37v-2.65c0-0.56-0.03-0.92-0.09-1.09c-0.06-0.17-0.15-0.29-0.29-0.38s-0.29-0.14-0.48-0.14
		c-0.24,0-0.45,0.07-0.64,0.2c-0.19,0.13-0.32,0.3-0.39,0.52c-0.07,0.21-0.11,0.61-0.11,1.19v2.35h-1.37v-5.19h1.27v0.76
		c0.45-0.59,1.02-0.88,1.71-0.88c0.3,0,0.58,0.05,0.83,0.16c0.25,0.11,0.44,0.25,0.57,0.42c0.13,0.17,0.22,0.36,0.27,0.58
		c0.05,0.21,0.08,0.52,0.08,0.92V192.67z"/>
	<path d="M104.42,193.01l1.57,0.19c0.03,0.18,0.09,0.31,0.18,0.38c0.13,0.1,0.34,0.15,0.62,0.15c0.36,0,0.63-0.05,0.81-0.16
		c0.12-0.07,0.21-0.19,0.27-0.35c0.04-0.11,0.06-0.32,0.06-0.63v-0.76c-0.41,0.56-0.93,0.84-1.55,0.84c-0.7,0-1.25-0.29-1.66-0.88
		c-0.32-0.47-0.48-1.04-0.48-1.74c0-0.87,0.21-1.53,0.63-1.99c0.42-0.46,0.94-0.69,1.56-0.69c0.64,0,1.17,0.28,1.59,0.84v-0.73h1.28
		v4.65c0,0.61-0.05,1.07-0.15,1.37c-0.1,0.3-0.24,0.54-0.42,0.71c-0.18,0.17-0.43,0.31-0.73,0.41c-0.3,0.1-0.69,0.15-1.16,0.15
		c-0.88,0-1.5-0.15-1.87-0.45c-0.37-0.3-0.55-0.68-0.55-1.14C104.42,193.13,104.42,193.08,104.42,193.01z M105.65,189.97
		c0,0.55,0.11,0.95,0.32,1.21c0.21,0.26,0.48,0.38,0.79,0.38c0.34,0,0.62-0.13,0.85-0.39c0.23-0.26,0.35-0.65,0.35-1.16
		c0-0.54-0.11-0.94-0.33-1.2c-0.22-0.26-0.5-0.39-0.84-0.39c-0.33,0-0.6,0.13-0.81,0.38C105.75,189.06,105.65,189.45,105.65,189.97z
		"/>
	<path d="M110.17,191.19l1.38-0.21c0.06,0.27,0.18,0.47,0.36,0.61c0.18,0.14,0.43,0.21,0.75,0.21c0.36,0,0.62-0.07,0.8-0.2
		c0.12-0.09,0.18-0.21,0.18-0.37c0-0.1-0.03-0.19-0.1-0.26c-0.07-0.07-0.22-0.12-0.46-0.18c-1.11-0.24-1.81-0.47-2.1-0.67
		c-0.41-0.28-0.62-0.67-0.62-1.17c0-0.45,0.18-0.83,0.53-1.13c0.36-0.31,0.91-0.46,1.65-0.46c0.71,0,1.24,0.12,1.58,0.35
		c0.35,0.23,0.58,0.57,0.71,1.03l-1.29,0.24c-0.05-0.2-0.16-0.36-0.31-0.46c-0.16-0.11-0.38-0.16-0.66-0.16
		c-0.36,0-0.62,0.05-0.78,0.15c-0.1,0.07-0.16,0.16-0.16,0.28c0,0.1,0.05,0.18,0.14,0.25c0.12,0.09,0.55,0.22,1.28,0.39
		c0.73,0.17,1.24,0.37,1.53,0.61c0.29,0.24,0.43,0.58,0.43,1.02c0,0.48-0.2,0.88-0.6,1.23c-0.4,0.34-0.98,0.51-1.76,0.51
		c-0.71,0-1.27-0.14-1.68-0.43C110.57,192.07,110.3,191.68,110.17,191.19z"/>
	<path d="M115.9,190.01c0-0.46,0.11-0.9,0.34-1.32s0.54-0.75,0.96-0.98c0.41-0.22,0.87-0.34,1.38-0.34c0.79,0,1.43,0.25,1.93,0.76
		c0.5,0.51,0.75,1.15,0.75,1.93c0,0.78-0.25,1.43-0.76,1.95c-0.51,0.52-1.14,0.77-1.91,0.77c-0.47,0-0.93-0.11-1.36-0.32
		c-0.43-0.21-0.76-0.53-0.98-0.95C116.01,191.11,115.9,190.6,115.9,190.01z M117.31,190.08c0,0.51,0.12,0.91,0.37,1.18
		s0.55,0.41,0.9,0.41c0.36,0,0.66-0.14,0.9-0.41c0.24-0.27,0.36-0.67,0.36-1.19c0-0.51-0.12-0.9-0.36-1.17
		c-0.24-0.27-0.54-0.41-0.9-0.41c-0.36,0-0.66,0.14-0.9,0.41S117.31,189.57,117.31,190.08z"/>
	<path d="M121.72,187.49h0.76v-0.39c0-0.44,0.05-0.76,0.14-0.98s0.26-0.39,0.51-0.53c0.25-0.13,0.56-0.2,0.94-0.2
		c0.39,0,0.77,0.06,1.15,0.18l-0.19,0.96c-0.22-0.05-0.43-0.08-0.63-0.08c-0.2,0-0.34,0.05-0.43,0.14
		c-0.09,0.09-0.13,0.27-0.13,0.53v0.37h1.03v1.08h-1.03v4.11h-1.37v-4.11h-0.76V187.49z"/>
	<path d="M128.03,187.49v1.09h-0.94v2.09c0,0.42,0.01,0.67,0.03,0.74c0.02,0.07,0.06,0.13,0.12,0.17s0.14,0.07,0.23,0.07
		c0.13,0,0.31-0.04,0.55-0.13l0.12,1.06c-0.32,0.14-0.68,0.21-1.08,0.21c-0.25,0-0.47-0.04-0.67-0.12c-0.2-0.08-0.34-0.19-0.44-0.32
		c-0.09-0.13-0.16-0.31-0.19-0.53c-0.03-0.16-0.04-0.48-0.04-0.97v-2.26h-0.63v-1.09h0.63v-1.03l1.38-0.8v1.83H128.03z"/>
	<path d="M129.95,192.67l-1.64-5.19h1.33l0.97,3.4l0.89-3.4h1.32l0.86,3.4l0.99-3.4h1.35l-1.67,5.19h-1.32l-0.89-3.33l-0.88,3.33
		H129.95z"/>
	<path d="M137.79,189.07l-1.25-0.22c0.14-0.5,0.38-0.87,0.72-1.11s0.85-0.36,1.52-0.36c0.61,0,1.07,0.07,1.37,0.22
		c0.3,0.15,0.51,0.33,0.63,0.55c0.12,0.22,0.18,0.63,0.18,1.23l-0.01,1.6c0,0.46,0.02,0.79,0.07,1.01c0.04,0.22,0.13,0.45,0.25,0.7
		h-1.36c-0.04-0.09-0.08-0.23-0.13-0.41c-0.02-0.08-0.04-0.13-0.05-0.16c-0.23,0.23-0.48,0.4-0.75,0.51
		c-0.27,0.11-0.55,0.17-0.85,0.17c-0.53,0-0.95-0.14-1.26-0.43s-0.46-0.66-0.46-1.1c0-0.29,0.07-0.55,0.21-0.78
		c0.14-0.23,0.34-0.41,0.59-0.53c0.25-0.12,0.62-0.23,1.09-0.32c0.64-0.12,1.09-0.23,1.33-0.34v-0.14c0-0.26-0.06-0.45-0.2-0.56
		c-0.13-0.11-0.38-0.17-0.74-0.17c-0.24,0-0.43,0.05-0.57,0.14C137.98,188.66,137.87,188.83,137.79,189.07z M139.62,190.18
		c-0.18,0.06-0.45,0.13-0.83,0.21s-0.63,0.16-0.75,0.24c-0.18,0.13-0.27,0.29-0.27,0.48c0,0.19,0.07,0.36,0.21,0.5
		c0.14,0.14,0.33,0.21,0.55,0.21c0.25,0,0.48-0.08,0.71-0.24c0.17-0.12,0.28-0.28,0.33-0.45c0.04-0.12,0.05-0.34,0.05-0.67V190.18z"
		/>
	<path d="M143.64,192.67h-1.37v-5.19h1.27v0.74c0.22-0.35,0.41-0.58,0.59-0.69c0.17-0.11,0.37-0.17,0.59-0.17
		c0.31,0,0.61,0.09,0.9,0.26l-0.42,1.2c-0.23-0.15-0.45-0.22-0.64-0.22c-0.19,0-0.35,0.05-0.49,0.16c-0.13,0.11-0.24,0.3-0.31,0.57
		c-0.08,0.28-0.12,0.86-0.12,1.74V192.67z"/>
	<path d="M149.22,191.02l1.37,0.23c-0.18,0.5-0.45,0.88-0.83,1.15c-0.38,0.26-0.85,0.39-1.42,0.39c-0.9,0-1.57-0.29-2-0.88
		c-0.34-0.47-0.51-1.07-0.51-1.79c0-0.86,0.22-1.53,0.67-2.02c0.45-0.49,1.02-0.73,1.7-0.73c0.77,0,1.38,0.25,1.83,0.76
		c0.45,0.51,0.66,1.29,0.64,2.34h-3.44c0.01,0.41,0.12,0.72,0.33,0.95c0.21,0.23,0.48,0.34,0.79,0.34c0.21,0,0.4-0.06,0.54-0.18
		S149.15,191.28,149.22,191.02z M149.3,189.64c-0.01-0.4-0.11-0.7-0.31-0.91c-0.2-0.21-0.43-0.31-0.71-0.31
		c-0.3,0-0.55,0.11-0.74,0.33s-0.29,0.51-0.29,0.89H149.3z"/>
</g>
<g>
	<path d="M21.62,80.06v-2.89h7.6v6.84c-0.74,0.7-1.81,1.32-3.21,1.86c-1.4,0.54-2.82,0.8-4.26,0.8c-1.83,0-3.42-0.38-4.77-1.13
		s-2.38-1.83-3.06-3.23s-1.02-2.93-1.02-4.58c0-1.79,0.38-3.38,1.14-4.77s1.88-2.46,3.35-3.2c1.12-0.57,2.51-0.86,4.18-0.86
		c2.17,0,3.86,0.45,5.08,1.34s2,2.13,2.35,3.71l-3.5,0.64c-0.25-0.84-0.71-1.51-1.39-2s-1.53-0.73-2.54-0.73
		c-1.54,0-2.76,0.48-3.67,1.44s-1.36,2.39-1.36,4.28c0,2.04,0.46,3.57,1.38,4.59c0.92,1.02,2.13,1.53,3.62,1.53
		c0.74,0,1.48-0.14,2.22-0.43c0.74-0.29,1.38-0.63,1.91-1.04v-2.18H21.62z"/>
	<path d="M39.76,82.41l3.33,0.55c-0.43,1.2-1.11,2.12-2.03,2.75c-0.92,0.63-2.08,0.94-3.47,0.94c-2.2,0-3.83-0.71-4.88-2.12
		c-0.83-1.13-1.25-2.56-1.25-4.29c0-2.06,0.55-3.68,1.64-4.85s2.48-1.75,4.15-1.75c1.88,0,3.37,0.61,4.45,1.83
		c1.09,1.22,1.61,3.1,1.56,5.62h-8.38c0.02,0.98,0.29,1.74,0.81,2.28c0.52,0.54,1.16,0.81,1.93,0.81c0.52,0,0.96-0.14,1.32-0.42
		C39.31,83.49,39.58,83.04,39.76,82.41z M39.95,79.08c-0.02-0.95-0.27-1.68-0.75-2.17c-0.48-0.5-1.06-0.74-1.74-0.74
		c-0.73,0-1.33,0.26-1.81,0.79s-0.71,1.23-0.7,2.13H39.95z"/>
	<path d="M44.82,82.82l3.36-0.5c0.14,0.64,0.43,1.13,0.87,1.46s1.05,0.5,1.83,0.5c0.87,0,1.52-0.16,1.95-0.47
		c0.29-0.22,0.44-0.51,0.44-0.88c0-0.25-0.08-0.46-0.24-0.62c-0.17-0.16-0.54-0.3-1.12-0.43c-2.7-0.59-4.41-1.12-5.13-1.61
		c-1-0.67-1.5-1.61-1.5-2.8c0-1.08,0.43-1.98,1.3-2.72c0.86-0.73,2.21-1.1,4.02-1.1c1.73,0,3.02,0.28,3.86,0.83
		c0.84,0.55,1.42,1.38,1.74,2.46l-3.15,0.57c-0.13-0.48-0.39-0.86-0.77-1.11s-0.92-0.39-1.61-0.39c-0.88,0-1.51,0.12-1.89,0.36
		c-0.25,0.17-0.38,0.39-0.38,0.67c0,0.23,0.11,0.43,0.33,0.6c0.3,0.22,1.34,0.53,3.12,0.93s3.03,0.89,3.73,1.46
		c0.7,0.59,1.05,1.4,1.05,2.45c0,1.14-0.48,2.12-1.45,2.94c-0.97,0.82-2.4,1.23-4.3,1.23c-1.72,0-3.09-0.34-4.09-1.03
		S45.13,84,44.82,82.82z"/>
	<path d="M62.06,77.72l-3.04-0.54c0.34-1.2,0.93-2.09,1.76-2.67c0.83-0.58,2.07-0.87,3.71-0.87c1.49,0,2.6,0.17,3.33,0.52
		c0.73,0.35,1.24,0.79,1.54,1.32c0.3,0.54,0.45,1.52,0.45,2.95l-0.04,3.84c0,1.09,0.05,1.9,0.16,2.42c0.11,0.52,0.31,1.08,0.6,1.67
		h-3.31c-0.09-0.22-0.19-0.54-0.32-0.97c-0.06-0.2-0.1-0.32-0.12-0.39c-0.57,0.55-1.18,0.96-1.83,1.23
		c-0.65,0.27-1.35,0.41-2.08,0.41c-1.3,0-2.33-0.35-3.08-1.04s-1.12-1.57-1.12-2.64c0-0.7,0.17-1.33,0.51-1.88s0.82-0.97,1.43-1.27
		s1.5-0.55,2.66-0.77c1.56-0.29,2.65-0.56,3.25-0.81v-0.33c0-0.63-0.16-1.08-0.48-1.35s-0.92-0.4-1.8-0.4
		c-0.6,0-1.06,0.12-1.39,0.35S62.27,77.15,62.06,77.72z M66.54,80.4c-0.43,0.14-1.11,0.31-2.04,0.5s-1.54,0.39-1.82,0.57
		c-0.44,0.3-0.65,0.69-0.65,1.16c0,0.46,0.17,0.86,0.52,1.2c0.35,0.34,0.79,0.5,1.33,0.5c0.6,0,1.18-0.2,1.73-0.59
		c0.4-0.3,0.67-0.66,0.8-1.09c0.09-0.28,0.13-0.82,0.13-1.61V80.4z"/>
	<path d="M72.87,73.93h3.08v1.7c1.1-1.32,2.42-1.98,3.94-1.98c0.81,0,1.51,0.16,2.11,0.49s1.08,0.82,1.46,1.49
		c0.56-0.66,1.15-1.16,1.8-1.49c0.64-0.33,1.33-0.49,2.06-0.49c0.93,0,1.71,0.19,2.36,0.56c0.64,0.37,1.12,0.92,1.44,1.63
		c0.23,0.53,0.35,1.39,0.35,2.58v7.96h-3.35v-7.11c0-1.23-0.12-2.03-0.35-2.39c-0.31-0.47-0.79-0.7-1.43-0.7
		c-0.47,0-0.91,0.14-1.32,0.42s-0.71,0.69-0.89,1.24s-0.27,1.4-0.27,2.57v5.98h-3.35v-6.82c0-1.21-0.06-1.99-0.18-2.34
		s-0.3-0.61-0.55-0.79s-0.59-0.26-1.02-0.26c-0.52,0-0.98,0.14-1.39,0.41s-0.71,0.67-0.89,1.18c-0.18,0.52-0.27,1.37-0.27,2.57v6.05
		h-3.35V73.93z"/>
	<path d="M100.6,73.93v2.62h-2.29v5.02c0,1.02,0.02,1.61,0.07,1.78s0.14,0.31,0.3,0.42s0.34,0.16,0.57,0.16
		c0.31,0,0.76-0.11,1.35-0.32l0.29,2.55c-0.78,0.33-1.66,0.49-2.64,0.49c-0.6,0-1.15-0.1-1.63-0.3c-0.48-0.2-0.84-0.46-1.07-0.77
		s-0.38-0.74-0.47-1.28c-0.07-0.38-0.11-1.16-0.11-2.32v-5.43h-1.54v-2.62h1.54v-2.47l3.36-1.92v4.39H100.6z"/>
	<path d="M101.74,82.82l3.36-0.5c0.14,0.64,0.43,1.13,0.87,1.46s1.05,0.5,1.83,0.5c0.87,0,1.52-0.16,1.95-0.47
		c0.29-0.22,0.44-0.51,0.44-0.88c0-0.25-0.08-0.46-0.24-0.62c-0.17-0.16-0.54-0.3-1.12-0.43c-2.7-0.59-4.41-1.12-5.13-1.61
		c-1-0.67-1.5-1.61-1.5-2.8c0-1.08,0.43-1.98,1.3-2.72s2.21-1.1,4.02-1.1c1.73,0,3.02,0.28,3.86,0.83c0.84,0.55,1.42,1.38,1.74,2.46
		l-3.15,0.57c-0.14-0.48-0.39-0.86-0.77-1.11s-0.91-0.39-1.61-0.39c-0.88,0-1.51,0.12-1.89,0.36c-0.25,0.17-0.38,0.39-0.38,0.67
		c0,0.23,0.11,0.43,0.33,0.6c0.3,0.22,1.34,0.53,3.12,0.93c1.78,0.4,3.03,0.89,3.73,1.46c0.7,0.59,1.05,1.4,1.05,2.45
		c0,1.14-0.48,2.12-1.45,2.94c-0.97,0.82-2.4,1.23-4.3,1.23c-1.72,0-3.08-0.34-4.09-1.03C102.7,84.94,102.05,84,101.74,82.82z"/>
	<path d="M116.48,72.24v-3.05h3.35v3.05H116.48z M116.48,86.37V73.93h3.35v12.45H116.48z"/>
	<path d="M130.57,82.41l3.33,0.55c-0.43,1.2-1.1,2.12-2.03,2.75s-2.08,0.94-3.47,0.94c-2.2,0-3.83-0.71-4.88-2.12
		c-0.83-1.13-1.25-2.56-1.25-4.29c0-2.06,0.55-3.68,1.64-4.85c1.09-1.17,2.48-1.75,4.15-1.75c1.88,0,3.37,0.61,4.45,1.83
		c1.09,1.22,1.61,3.1,1.56,5.62h-8.38c0.02,0.98,0.29,1.74,0.81,2.28s1.16,0.81,1.93,0.81c0.52,0,0.96-0.14,1.32-0.42
		S130.39,83.04,130.57,82.41z M130.76,79.08c-0.02-0.95-0.27-1.68-0.75-2.17c-0.48-0.5-1.06-0.74-1.74-0.74
		c-0.73,0-1.33,0.26-1.81,0.79c-0.48,0.52-0.71,1.23-0.7,2.13H130.76z"/>
	<path d="M136.5,87.19l3.82,0.46c0.06,0.44,0.21,0.74,0.44,0.9c0.32,0.23,0.82,0.35,1.5,0.35c0.87,0,1.53-0.13,1.96-0.39
		c0.29-0.17,0.52-0.45,0.67-0.83c0.1-0.27,0.16-0.78,0.16-1.51v-1.82c-1,1.34-2.26,2.02-3.79,2.02c-1.7,0-3.04-0.71-4.04-2.12
		c-0.78-1.12-1.17-2.51-1.17-4.17c0-2.09,0.51-3.68,1.53-4.78c1.02-1.1,2.29-1.65,3.8-1.65c1.56,0,2.85,0.68,3.87,2.03v-1.75h3.13
		V85.1c0,1.47-0.12,2.57-0.37,3.29s-0.59,1.3-1.04,1.71s-1.04,0.74-1.78,0.97s-1.68,0.35-2.82,0.35c-2.14,0-3.66-0.36-4.56-1.08
		c-0.9-0.72-1.34-1.64-1.34-2.75C136.49,87.48,136.49,87.35,136.5,87.19z M139.49,79.89c0,1.32,0.26,2.29,0.78,2.9
		c0.52,0.61,1.16,0.92,1.92,0.92c0.82,0,1.51-0.31,2.07-0.94s0.85-1.56,0.85-2.79c0-1.29-0.27-2.25-0.81-2.87
		c-0.54-0.62-1.22-0.94-2.05-0.94c-0.8,0-1.46,0.31-1.98,0.92C139.75,77.7,139.49,78.63,139.49,79.89z"/>
	<path d="M159.02,82.41l3.33,0.55c-0.43,1.2-1.1,2.12-2.03,2.75s-2.08,0.94-3.47,0.94c-2.2,0-3.83-0.71-4.88-2.12
		c-0.83-1.13-1.25-2.56-1.25-4.29c0-2.06,0.55-3.68,1.64-4.85c1.09-1.17,2.48-1.75,4.15-1.75c1.88,0,3.37,0.61,4.45,1.83
		c1.09,1.22,1.61,3.1,1.56,5.62h-8.38c0.02,0.98,0.29,1.74,0.81,2.28s1.16,0.81,1.93,0.81c0.52,0,0.96-0.14,1.32-0.42
		S158.84,83.04,159.02,82.41z M159.21,79.08c-0.02-0.95-0.27-1.68-0.75-2.17c-0.48-0.5-1.06-0.74-1.74-0.74
		c-0.73,0-1.33,0.26-1.81,0.79c-0.48,0.52-0.71,1.23-0.7,2.13H159.21z"/>
	<path d="M168.46,86.37h-3.34V73.93h3.11v1.77c0.53-0.84,1.01-1.39,1.43-1.65c0.42-0.27,0.91-0.4,1.45-0.4c0.76,0,1.5,0.21,2.2,0.62
		l-1.04,2.87c-0.56-0.36-1.09-0.54-1.57-0.54c-0.47,0-0.87,0.13-1.19,0.38s-0.58,0.71-0.77,1.38s-0.28,2.05-0.28,4.17V86.37z"/>
</g>
<g>
	<path d="M79.91,95.22h3.43c0.68,0,1.19,0.03,1.52,0.08s0.63,0.17,0.9,0.35s0.48,0.42,0.66,0.72s0.26,0.63,0.26,1
		c0,0.4-0.11,0.77-0.33,1.11s-0.51,0.59-0.88,0.76c0.52,0.15,0.93,0.41,1.21,0.78s0.42,0.8,0.42,1.29c0,0.39-0.09,0.77-0.27,1.14
		s-0.43,0.66-0.74,0.88s-0.7,0.36-1.16,0.41c-0.29,0.03-0.99,0.05-2.09,0.06h-2.92V95.22z M81.64,96.65v1.99h1.14
		c0.68,0,1.1-0.01,1.26-0.03c0.3-0.04,0.53-0.14,0.7-0.31S85,97.9,85,97.63c0-0.27-0.07-0.48-0.22-0.65s-0.36-0.27-0.65-0.3
		c-0.17-0.02-0.67-0.03-1.48-0.03H81.64z M81.64,100.06v2.3h1.61c0.62,0,1.02-0.02,1.19-0.05c0.26-0.05,0.47-0.16,0.63-0.34
		s0.24-0.42,0.24-0.73c0-0.26-0.06-0.48-0.19-0.66s-0.31-0.31-0.54-0.39s-0.75-0.12-1.54-0.12H81.64z"/>
	<path d="M88.57,103.81v-8.59h2.78c1.05,0,1.74,0.04,2.06,0.13c0.49,0.13,0.9,0.41,1.24,0.84s0.5,0.99,0.5,1.67
		c0,0.53-0.1,0.97-0.29,1.33s-0.43,0.64-0.73,0.85s-0.59,0.34-0.9,0.41c-0.41,0.08-1.01,0.12-1.8,0.12H90.3v3.24H88.57z M90.3,96.67
		v2.44h0.95c0.68,0,1.14-0.04,1.37-0.13s0.41-0.23,0.54-0.42s0.2-0.41,0.2-0.67c0-0.31-0.09-0.57-0.28-0.77s-0.42-0.33-0.7-0.38
		c-0.21-0.04-0.62-0.06-1.25-0.06H90.3z"/>
	<path d="M96.55,103.81v-8.59h2.6l1.56,5.86l1.54-5.86h2.6v8.59h-1.61v-6.76l-1.71,6.76h-1.67l-1.7-6.76v6.76H96.55z"/>
</g>
<g>
	<path d="M89.37,152.85c-0.26,0.22-0.51,0.38-0.75,0.47c-0.24,0.09-0.5,0.14-0.78,0.14c-0.46,0-0.81-0.11-1.05-0.33
		s-0.37-0.51-0.37-0.85c0-0.2,0.05-0.39,0.14-0.56s0.21-0.3,0.36-0.4s0.32-0.18,0.51-0.23c0.14-0.04,0.35-0.07,0.62-0.11
		c0.57-0.07,0.99-0.15,1.25-0.24c0-0.1,0-0.16,0-0.18c0-0.29-0.07-0.49-0.2-0.61c-0.18-0.16-0.45-0.24-0.8-0.24
		c-0.33,0-0.57,0.06-0.73,0.17c-0.16,0.12-0.27,0.32-0.35,0.62l-0.69-0.09c0.06-0.29,0.17-0.53,0.31-0.71
		c0.14-0.18,0.35-0.32,0.62-0.42s0.58-0.15,0.94-0.15c0.35,0,0.64,0.04,0.86,0.12c0.22,0.08,0.38,0.19,0.49,0.31
		c0.1,0.13,0.18,0.29,0.22,0.48c0.02,0.12,0.04,0.34,0.04,0.65v0.94c0,0.65,0.02,1.07,0.04,1.24c0.03,0.17,0.09,0.34,0.18,0.5h-0.73
		C89.44,153.22,89.39,153.05,89.37,152.85z M89.31,151.28c-0.26,0.11-0.64,0.19-1.15,0.27c-0.29,0.04-0.49,0.09-0.61,0.14
		c-0.12,0.05-0.21,0.13-0.28,0.23c-0.06,0.1-0.1,0.21-0.1,0.33c0,0.19,0.07,0.34,0.21,0.47s0.35,0.19,0.62,0.19
		c0.27,0,0.51-0.06,0.72-0.18c0.21-0.12,0.37-0.28,0.46-0.49c0.08-0.16,0.11-0.39,0.11-0.7V151.28z"/>
	<path d="M91.12,148.45v-0.81h0.7v0.81H91.12z M91.12,153.36v-4.15h0.7v4.15H91.12z"/>
	<path d="M92.9,148.45v-0.81h0.7v0.81H92.9z M92.9,153.36v-4.15h0.7v4.15H92.9z"/>
	<path d="M94.41,151.29c0-0.77,0.21-1.34,0.64-1.71c0.36-0.31,0.79-0.46,1.3-0.46c0.57,0,1.04,0.19,1.4,0.56
		c0.36,0.38,0.54,0.89,0.54,1.55c0,0.54-0.08,0.96-0.24,1.26c-0.16,0.31-0.39,0.54-0.7,0.71c-0.31,0.17-0.64,0.25-1,0.25
		c-0.58,0-1.05-0.19-1.41-0.56C94.59,152.53,94.41,151.99,94.41,151.29z M95.13,151.29c0,0.53,0.12,0.93,0.35,1.19
		c0.23,0.27,0.52,0.4,0.88,0.4c0.35,0,0.64-0.13,0.87-0.4c0.23-0.27,0.35-0.67,0.35-1.21c0-0.51-0.12-0.9-0.35-1.17
		c-0.23-0.26-0.52-0.4-0.87-0.4c-0.35,0-0.64,0.13-0.88,0.39C95.25,150.36,95.13,150.76,95.13,151.29z"/>
</g>
<g>
</g>
<g>
</g>
<g>
</g>
<g>
</g>
<g>
</g>
<g>
</g>
<g>
</g>
</svg>
