<svg xmlns="http://www.w3.org/2000/svg" width="20" height="16" viewBox="0 0 20 16">
  <path id="Mail_Logo_light_lila" data-name="Mail Logo light lila" d="M5.25,4h13.5a3.25,3.25,0,0,1,3.245,3.066L22,7.25v9.5a3.25,3.25,0,0,1-3.066,3.245L18.75,20H5.25a3.25,3.25,0,0,1-3.245-3.066L2,16.75V7.25A3.25,3.25,0,0,1,5.066,4.005L5.25,4h0ZM20.5,9.373l-8.151,4.291a.75.75,0,0,1-.6.042l-.1-.042L3.5,9.374V16.75a1.75,1.75,0,0,0,1.606,1.744l.144.006h13.5a1.75,1.75,0,0,0,1.744-1.607l.006-.143ZM18.75,5.5H5.25A1.75,1.75,0,0,0,3.506,7.106L3.5,7.25v.429L12,12.153l8.5-4.475V7.25a1.75,1.75,0,0,0-1.607-1.744Z" transform="translate(-2 -4)" fill="#c0a0e5"/>
</svg>
