<svg xmlns="http://www.w3.org/2000/svg" width="15.302" height="20.096" viewBox="0 0 15.302 20.096">
  <path id="Pfad_9401" data-name="Pfad 9401" d="M7.057,2.418l1.167-.352a2.75,2.75,0,0,1,3.3,1.505l.9,2.006a2.75,2.75,0,0,1-.633,3.139L10.3,10.11a.251.251,0,0,0-.078.155,4.717,4.717,0,0,0,.845,2.245,6.842,6.842,0,0,0,1.207,1.637c.242.215.375.261.432.244l2.01-.615A2.75,2.75,0,0,1,17.751,14.8l1.281,1.775a2.75,2.75,0,0,1-.339,3.606l-.886.839a3.75,3.75,0,0,1-3.587.889C11.465,21.138,9,18.814,6.784,14.983S3.792,7.842,4.508,5.07A3.75,3.75,0,0,1,7.057,2.418Zm.433,1.436A2.25,2.25,0,0,0,5.96,5.445c-.6,2.332.086,5.26,2.122,8.787s4.223,5.582,6.54,6.229a2.25,2.25,0,0,0,2.152-.533l.886-.839a1.25,1.25,0,0,0,.154-1.639l-1.281-1.775a1.25,1.25,0,0,0-1.379-.464l-2.015.616c-1.17.349-2.231-.593-3.371-2.568A5.632,5.632,0,0,1,8.731,10.1a1.75,1.75,0,0,1,.546-1.086l1.494-1.393a1.25,1.25,0,0,0,.288-1.427l-.9-2.006a1.25,1.25,0,0,0-1.5-.684Z" transform="translate(-4.25 -1.949)" fill="#c0a0e5"/>
</svg>
