<svg xmlns="http://www.w3.org/2000/svg" viewBox="0 0 177.55 177.55" role="img" aria-label="aiio brand mark">
  <g fill="#5A328A">
    <circle cx="88.77" cy="88.77" r="29.59" transform="translate(-8.32 9.18) rotate(-5.65)" />
    <path d="M88.77,0C39.74,0,0,39.74,0,88.77s39.74,88.77,88.77,88.77,88.77-39.74,88.77-88.77S137.8,0,88.77,0Zm53.26,128.72c0,6.53-5.31,11.84-11.84,11.84-5.18,0-9.57-3.32-11.17-7.95-8.59,5.94-19.02,9.42-30.25,9.42-29.42,0-53.26-23.85-53.26-53.26s23.84-53.26,53.26-53.26c8.89,0,17.27,2.18,24.64,6.04-.62,1.83-.97,3.76-.97,5.8,0,9.8,7.95,17.75,17.75,17.75,2.04,0,3.99-.35,5.8-.99,3.68,7.03,5.84,15,6.02,23.45,.01,.4,.01,.8,.01,1.21v39.95Zm-6.04-71.07c-.96,.55-2.02,.97-3.14,1.22-.85,.2-1.75,.31-2.66,.31-6.53,0-11.83-5.3-11.83-11.83,0-.92,.11-1.8,.29-2.66,.26-1.12,.67-2.19,1.24-3.16,2.03-3.59,5.89-6.02,10.3-6.02,6.53,0,11.84,5.31,11.84,11.84,0,4.42-2.43,8.27-6.04,10.3Z" />
  </g>
</svg>
